<svg width="60" height="24" viewBox="0 0 60 24" fill="none" xmlns="http://www.w3.org/2000/svg">
<path d="M13.2317 18.8679H31.4662C31.4406 19.248 31.0915 20.2855 30.927 20.5278H13.2317V18.8679Z" fill="currentColor"/>
<path d="M13.2317 3.14429H30.9565C31.1085 3.41758 31.4538 4.45113 31.4965 4.80416H13.2317V3.14429Z" fill="currentColor"/>
<path d="M16.519 12.5779H29.1678C29.5799 12.8659 30.3441 13.8127 30.649 14.2378H16.519V12.5779Z" fill="currentColor"/>
<path d="M26.3821 17.3835H31.6544C31.6683 16.9492 31.4969 16.0565 31.3665 15.7236H26.3821V17.3835Z" fill="currentColor"/>
<path d="M16.519 11.0942H29.1872C29.5993 10.8054 30.3565 9.85936 30.6615 9.43433H16.519V11.0942Z" fill="currentColor"/>
<path d="M26.3821 6.28967H31.6342C31.6326 6.67445 31.4899 7.61587 31.3603 7.94954H26.3821V6.28967Z" fill="currentColor"/>
<path d="M13.2317 22.0132H29.7189C28.2579 23.2488 26.9675 23.6731 24.7042 23.6731H23.0717H13.2317V22.0132Z" fill="currentColor"/>
<path d="M13.2317 1.65987H29.7189C28.2579 0.424258 26.9675 0 24.7042 0H23.0725H13.2317V1.65987Z" fill="currentColor"/>
<path d="M11.5872 0H0.0805664V1.65987H11.5872V0Z" fill="currentColor"/>
<path d="M11.5872 3.14429H0.0805664V4.80416H11.5872V3.14429Z" fill="currentColor"/>
<path d="M11.5872 18.8679H0.0805664V20.5278H11.5872V18.8679Z" fill="currentColor"/>
<path d="M8.2997 15.7231H3.36804V17.383H8.2997V15.7231Z" fill="currentColor"/>
<path d="M8.2997 12.5779H3.36804V14.2378H8.2997V12.5779Z" fill="currentColor"/>
<path d="M8.2997 9.43359H3.36804V11.0935H8.2997V9.43359Z" fill="currentColor"/>
<path d="M8.2997 6.28967H3.36804V7.94954H8.2997V6.28967Z" fill="currentColor"/>
<path d="M21.4499 15.7231H16.519V17.383H21.4499V15.7231Z" fill="currentColor"/>
<path d="M21.4499 6.28967H16.519V7.94954H21.4499V6.28967Z" fill="currentColor"/>
<path d="M43.827 17.3838H48.3885L48.9674 15.7231H43.2482L43.827 17.3838Z" fill="currentColor"/>
<path d="M42.7297 14.2385H49.4855L50.0643 12.5779H42.1509L42.7297 14.2385Z" fill="currentColor"/>
<path d="M11.5872 22.0132H0.0805664V23.6731H11.5872V22.0132Z" fill="currentColor"/>
<path d="M46.022 23.6731H46.1935L46.7731 22.0132H45.4424L46.022 23.6731Z" fill="currentColor"/>
<path d="M41.1764 15.7231H36.2448V17.383H41.1764V15.7231Z" fill="currentColor"/>
<path d="M41.1764 12.5779H36.2448V14.2378H41.1764V12.5779Z" fill="currentColor"/>
<path d="M41.1764 22.0132H32.958V23.6731H41.1764V22.0132Z" fill="currentColor"/>
<path d="M41.1764 18.8679H32.958V20.5278H41.1764V18.8679Z" fill="currentColor"/>
<path d="M44.9248 20.5278H47.2913L47.8701 18.8679H44.3452L44.9248 20.5278Z" fill="currentColor"/>
<path d="M55.9705 15.7231H51.0397V17.383H55.9705V15.7231Z" fill="currentColor"/>
<path d="M55.9705 12.5779H51.0397V14.2378H55.9705V12.5779Z" fill="currentColor"/>
<path d="M59.2585 22.0132H51.0386V23.6731H59.2585V22.0132Z" fill="currentColor"/>
<path d="M59.2588 18.8679H51.0397V20.5278H59.2588V18.8679Z" fill="currentColor"/>
<path d="M44.467 6.28967H36.2448V7.94954H45.0567L44.467 6.28967Z" fill="currentColor"/>
<path d="M46.6326 9.43359L46.1081 10.9239L45.5844 9.43359H36.2456V11.0942H41.1765V9.78663L41.6327 11.0942H50.5828L51.039 9.78663V9.79592L51.0398 9.79514V11.0942H55.9714V9.43359H46.6326Z" fill="currentColor"/>
<path d="M42.2355 0H32.958V1.65987H42.8244L42.2355 0Z" fill="currentColor"/>
<path d="M43.3512 3.14429H32.958V4.80416H43.9409L43.3512 3.14429Z" fill="currentColor"/>
<path d="M47.7485 6.28967H55.9715V7.94954H47.1588L47.7485 6.28967Z" fill="currentColor"/>
<path d="M49.9804 0H59.2587V1.65987H49.3915L49.9804 0Z" fill="currentColor"/>
<path d="M48.8642 3.14429H59.259V4.80416H48.2753L48.8642 3.14429Z" fill="currentColor"/>
</svg>
