<?xml version="1.0" encoding="UTF-8" standalone="no"?>
<svg
   xmlns:dc="http://purl.org/dc/elements/1.1/"
   xmlns:cc="http://creativecommons.org/ns#"
   xmlns:rdf="http://www.w3.org/1999/02/22-rdf-syntax-ns#"
   xmlns:svg="http://www.w3.org/2000/svg"
   xmlns="http://www.w3.org/2000/svg"
   viewBox="0 0 1763.78 2400.7561"
   height="2400.7561"
   width="1763.78"
   xml:space="preserve"
   id="svg2"
   version="1.1"><metadata
     id="metadata8"><rdf:RDF><cc:Work
         rdf:about=""><dc:format>image/svg+xml</dc:format><dc:type
           rdf:resource="http://purl.org/dc/dcmitype/StillImage" /></cc:Work></rdf:RDF></metadata><defs
     id="defs6"><clipPath
       id="clipPath32"
       clipPathUnits="userSpaceOnUse"><path
         id="path30"
         d="m 424.0423,710.04 h 81.49957 v 16.4837 H 424.0423 Z" /></clipPath><clipPath
       id="clipPath56"
       clipPathUnits="userSpaceOnUse"><path
         id="path54"
         d="m 698.9758,710.0423 h 46.9401 v 16.35802 h -46.9401 z" /></clipPath><clipPath
       id="clipPath74"
       clipPathUnits="userSpaceOnUse"><path
         id="path72"
         d="m 744.7783,705.6607 h 87.69531 v 21.85069 H 744.7783 Z" /></clipPath><clipPath
       id="clipPath98"
       clipPathUnits="userSpaceOnUse"><path
         id="path96"
         d="m 745.8585,325.0423 h 40.76606 v 16.35802 H 745.8585 Z" /></clipPath><clipPath
       id="clipPath122"
       clipPathUnits="userSpaceOnUse"><path
         id="path120"
         d="m 1045.441,1130.04 h 80.2951 v 17.4714 h -80.2951 z" /></clipPath><clipPath
       id="clipPath146"
       clipPathUnits="userSpaceOnUse"><path
         id="path144"
         d="m 408.6102,1130.289 h 41.99219 v 15.3406 H 408.6102 Z" /></clipPath><clipPath
       id="clipPath164"
       clipPathUnits="userSpaceOnUse"><path
         id="path162"
         d="m 451.141,1127.45 h 66.69922 v 15.3704 H 451.141 Z" /></clipPath><clipPath
       id="clipPath188"
       clipPathUnits="userSpaceOnUse"><path
         id="path186"
         d="m 237.5988,1550.042 h 39.53993 v 16.4815 H 237.5988 Z" /></clipPath><clipPath
       id="clipPath212"
       clipPathUnits="userSpaceOnUse"><path
         id="path210"
         d="m 1018.527,1550.042 h 51.4757 v 16.358 h -51.4757 z" /></clipPath><clipPath
       id="clipPath230"
       clipPathUnits="userSpaceOnUse"><path
         id="path228"
         d="m 1071.613,1549.24 h 81.4996 v 17.4074 h -81.4996 z" /></clipPath><clipPath
       id="clipPath254"
       clipPathUnits="userSpaceOnUse"><path
         id="path252"
         d="m 444.9065,1550.042 h 39.53993 v 16.4815 H 444.9065 Z" /></clipPath><clipPath
       id="clipPath278"
       clipPathUnits="userSpaceOnUse"><path
         id="path276"
         d="m 652.2142,1550.042 h 39.53993 v 16.4815 H 652.2142 Z" /></clipPath><clipPath
       id="clipPath318"
       clipPathUnits="userSpaceOnUse"><path
         id="path316"
         d="m 574.9526,708.2345 h 40.39529 v 16.02377 H 574.9526 Z" /></clipPath><clipPath
       id="clipPath358"
       clipPathUnits="userSpaceOnUse"><path
         id="path356"
         d="m 442.717,1354.801 h 40.39529 v 16.0238 H 442.717 Z" /></clipPath><clipPath
       id="clipPath442"
       clipPathUnits="userSpaceOnUse"><path
         id="path440"
         d="m 739.3172,1092.913 h 50.46914 v 16.4938 H 739.3172 Z" /></clipPath><clipPath
       id="clipPath498"
       clipPathUnits="userSpaceOnUse"><path
         id="path496"
         d="m 442.717,918.2345 h 40.39529 v 16.02377 H 442.717 Z" /></clipPath><clipPath
       id="clipPath538"
       clipPathUnits="userSpaceOnUse"><path
         id="path536"
         d="m 744.2555,496.7947 h 40.39529 v 16.02377 H 744.2555 Z" /></clipPath><clipPath
       id="clipPath566"
       clipPathUnits="userSpaceOnUse"><path
         id="path564"
         d="m 889.2949,179.6611 h 43.25087 v 19.9367 H 889.2949 Z" /></clipPath><clipPath
       id="clipPath584"
       clipPathUnits="userSpaceOnUse"><path
         id="path582"
         d="m 866.4862,152.9945 h 80.29514 v 19.01077 H 866.4862 Z" /></clipPath><clipPath
       id="clipPath624"
       clipPathUnits="userSpaceOnUse"><path
         id="path622"
         d="m 1064.64,743.2345 h 40.3953 v 16.02377 H 1064.64 Z" /></clipPath><clipPath
       id="clipPath642"
       clipPathUnits="userSpaceOnUse"><path
         id="path640"
         d="m 289.2246,572.5423 h 46.9401 v 16.35802 h -46.9401 z" /></clipPath><clipPath
       id="clipPath660"
       clipPathUnits="userSpaceOnUse"><path
         id="path658"
         d="m 334.5332,572.5423 h 58.05122 v 16.35802 H 334.5332 Z" /></clipPath><clipPath
       id="clipPath678"
       clipPathUnits="userSpaceOnUse"><path
         id="path676"
         d="m 393.4839,568.1595 h 43.22917 v 20.74074 H 393.4839 Z" /></clipPath><clipPath
       id="clipPath696"
       clipPathUnits="userSpaceOnUse"><path
         id="path694"
         d="m 435.5209,568.1595 h 90.14757 v 20.74074 H 435.5209 Z" /></clipPath><clipPath
       id="clipPath714"
       clipPathUnits="userSpaceOnUse"><path
         id="path712"
         d="m 597.028,162.5361 h 43.25087 v 19.9367 H 597.028 Z" /></clipPath><clipPath
       id="clipPath732"
       clipPathUnits="userSpaceOnUse"><path
         id="path730"
         d="m 639.2502,162.5361 h 107.487 v 19.01077 h -107.487 z" /></clipPath></defs><g
     transform="matrix(1.3333333,0,0,-1.3333333,0,2400.756)"
     id="g10"><g
       id="g12" /><g
       id="g14"><path
         id="path16"
         style="fill:#ffffff;fill-opacity:1;fill-rule:nonzero;stroke:none"
         d="M 0,0 H 1322.835 V 1800.567 H 0 Z" /><path
         id="path18"
         style="fill:#ffffff;fill-opacity:1;fill-rule:nonzero;stroke:none"
         d="M 0,0 H 1322.835 V 1800.567 H 0 Z" /><path
         id="path20"
         style="fill:#ffffff;fill-opacity:1;fill-rule:nonzero;stroke:none"
         d="m 387.3077,814.567 c 0,3.3137 2.6863,6 6,6 h 138.7692 c 3.3137,0 6,-2.6863 6,-6 v -198 c 0,-3.3138 -2.6863,-6 -6,-6 H 393.3077 c -3.3137,0 -6,2.6862 -6,6 z" /><g
         transform="matrix(1,0,0,-1,387.3077,820.567)"
         id="g22"><path
           id="path24"
           style="fill:none;stroke:#3a414a;stroke-width:1;stroke-linecap:butt;stroke-linejoin:miter;stroke-miterlimit:4;stroke-dasharray:none;stroke-opacity:1"
           d="M 0,6 C 0,2.686292 2.686292,0 6,0 h 138.7692 c 3.3137,0 6,2.686292 6,6 v 198 c 0,3.3137 -2.6863,6 -6,6 H 6 c -3.313708,0 -6,-2.6863 -6,-6 z" /></g></g><g
       id="g26"><g
         clip-path="url(#clipPath32)"
         id="g28"><g
           transform="matrix(1,0,0,-1,424.0423,726.5237)"
           id="g34"><text
             id="text38"
             style="font-variant:normal;font-weight:normal;font-size:22.22221947px;font-family:Helvetica;-inkscape-font-specification:Helvetica;writing-mode:lr-tb;fill:#000000;fill-opacity:0;fill-rule:nonzero;stroke:none"
             transform="translate(0,20.44488)"><tspan
               id="tspan36"
               y="0"
               x="0 14.822221 22.222219 34.582218 53.093327 59.266663 71.626663 76.564438">Promtail</tspan></text>
</g></g></g><g
       id="g40"><path
         id="path42"
         style="fill:#3a414a;fill-opacity:1;fill-rule:nonzero;stroke:none"
         d="m 424.0423,725.5978 c 5.3703,-0.0617 11.7901,0.9259 11.7901,-4.6296 0,-4.8148 -4.7531,-4.9383 -9.7531,-4.6914 v -5.9876 h -2.037 z m 2.037,-7.716 c 3.5185,0 7.6543,-0.679 7.6543,3.0864 0,3.642 -4.1975,2.9012 -7.6543,2.963 v -6.0494 m 17.963,2.4691 c -4.8149,0.9877 -3.2716,-5.6173 -3.5186,-10.0617 h -1.9753 l -0.0617,11.7284 h 1.8519 c 0.0617,-0.7408 -0.0618,-1.7902 0.1234,-2.4074 0.3704,1.6666 1.4198,3.0247 3.5803,2.5308 v -1.7901 m 6.4814,1.9136 c 3.8272,0.0617 5.247,-2.284 5.247,-6.1111 0.0617,-3.8889 -1.6667,-6.1111 -5.3087,-6.1111 -3.642,0 -5.1234,2.4074 -5.1852,6.1111 0,4.074 1.7284,6.1111 5.2469,6.1111 z m -0.0617,-10.7408 c 2.7161,-0.0617 3.2716,1.9136 3.2716,4.6297 0,2.6543 -0.4938,4.6296 -3.1481,4.6296 -2.6544,0 -3.2716,-1.9753 -3.2716,-4.6296 0,-2.6543 0.6172,-4.5679 3.1481,-4.6297 m 19.1975,9.1976 c -4.1358,-0.1852 -2.3456,-6.4815 -2.716,-10.4321 h -1.9136 v 7.4691 c 0,1.7901 -0.3086,3.0864 -2.1605,2.963 -4.0741,-0.2469 -2.3457,-6.4198 -2.716,-10.4321 h -1.9136 l -0.0617,11.7284 h 1.8518 c 0.0617,-0.6173 -0.0617,-1.4815 0.1235,-1.9753 0.6173,2.716 6.1111,3.0864 6.6049,0 0.679,1.2963 1.6667,2.1605 3.5803,2.2222 5.2469,0.1234 2.9012,-7.3457 3.395,-11.9753 H 471.82 v 7.4691 c 0,1.7901 -0.3086,3.0247 -2.1605,2.963 m 9.1358,-7.5309 c -0.1234,-1.4815 1.1112,-1.7901 2.3457,-1.358 v -1.4815 c -2.037,-0.6173 -4.321,-0.3086 -4.321,2.4074 v 7.8395 h -1.358 v 1.4198 h 1.4815 l 0.5556,2.6543 h 1.2962 v -2.6543 h 2.1605 v -1.4198 h -2.1605 v -7.4074 m 11.2346,-0.679 c -0.9259,-1.2963 -1.9136,-2.5309 -4.1975,-2.4691 -2.2222,0.0617 -3.5803,1.2963 -3.5803,3.5185 -0.0617,3.9506 3.8889,3.8889 7.7161,3.8889 0.1852,2.1605 -0.5556,3.3333 -2.5309,3.3333 -1.4815,-0.0617 -2.5308,-0.4321 -2.5926,-1.9136 l -2.037,0.1852 c 0.3086,2.284 2.037,3.2099 4.6914,3.2099 2.7777,0 4.4444,-1.2346 4.4444,-3.9506 v -5.0618 c -0.0617,-1.2345 0.4321,-1.9753 1.7284,-1.6666 v -1.2346 c -1.9136,-0.5555 -3.7654,0.1235 -3.642,2.1605 z m -5.7407,1.0494 c 0,-1.2346 0.7407,-2.0371 1.9753,-2.0371 2.5308,0.1852 3.8889,1.7902 3.7037,4.5679 -2.6543,-0.1234 -5.679,0.3087 -5.679,-2.5308 m 10.8642,10.9876 v 1.8519 h 1.9753 v -1.8519 z m 0,-14.2592 v 11.7284 h 1.9753 v -11.7284 h -1.9753 m 4.8765,0 v 16.1111 h 1.9753 v -16.1111 h -1.9753" /><path
         id="path44"
         style="fill:#ffffff;fill-opacity:1;fill-rule:nonzero;stroke:none"
         d="m 688.8462,814.567 c 0,3.3137 2.6862,6 6,6 h 138.7692 c 3.3137,0 6,-2.6863 6,-6 v -198 c 0,-3.3138 -2.6863,-6 -6,-6 H 694.8462 c -3.3138,0 -6,2.6862 -6,6 z" /><g
         transform="matrix(1,0,0,-1,688.8462,820.567)"
         id="g46"><path
           id="path48"
           style="fill:none;stroke:#3a414a;stroke-width:1;stroke-linecap:butt;stroke-linejoin:miter;stroke-miterlimit:4;stroke-dasharray:none;stroke-opacity:1"
           d="M 0,6 C 0,2.686292 2.686292,0 6,0 h 138.7692 c 3.3137,0 6,2.686292 6,6 v 198 c 0,3.3137 -2.6863,6 -6,6 H 6 c -3.313708,0 -6,-2.6863 -6,-6 z" /></g></g><g
       id="g50"><g
         clip-path="url(#clipPath56)"
         id="g52"><g
           transform="matrix(1,0,0,-1,698.9758,726.4003)"
           id="g58"><text
             id="text62"
             style="font-variant:normal;font-weight:normal;font-size:22.22221947px;font-family:Helvetica;-inkscape-font-specification:Helvetica;writing-mode:lr-tb;fill:#000000;fill-opacity:0;fill-rule:nonzero;stroke:none"
             transform="translate(0,20.44488)"><tspan
               id="tspan60"
               y="0"
               x="0 12.359999 24.719997 35.831108">Loki</tspan></text>
</g></g></g><g
       id="g64"><path
         id="path66"
         style="fill:#3a414a;fill-opacity:1;fill-rule:nonzero;stroke:none"
         d="m 698.9758,710.2892 v 15.3086 h 2.037 v -13.642 h 7.7161 v -1.6666 h -9.7531 m 16.6667,11.9753 c 3.8271,0.0617 5.2469,-2.284 5.2469,-6.1111 0.0617,-3.8889 -1.6667,-6.1111 -5.3087,-6.1111 -3.642,0 -5.1234,2.4074 -5.1852,6.1111 0,4.074 1.7284,6.1111 5.247,6.1111 z m -0.0618,-10.7408 c 2.7161,-0.0617 3.2716,1.9136 3.2716,4.6297 0,2.6543 -0.4938,4.6296 -3.1481,4.6296 -2.6543,0 -3.2716,-1.9753 -3.2716,-4.6296 0,-2.6543 0.6173,-4.5679 3.1481,-4.6297 m 15.0618,-1.2345 -3.9507,5.3703 -1.4197,-1.1728 v -4.1975 h -1.9753 v 16.1111 h 1.9753 v -10.0617 l 5.1234,5.679 h 2.284 l -4.7531,-5.0618 5.0617,-6.6666 h -2.3456 m 3.7654,14.2592 v 1.8519 h 1.9753 v -1.8519 z m 0,-14.2592 v 11.7284 h 1.9753 v -11.7284 h -1.9753" /></g><g
       id="g68"><g
         clip-path="url(#clipPath74)"
         id="g70"><g
           transform="matrix(1,0,0,-1,744.7783,727.5114)"
           id="g76"><text
             id="text80"
             style="font-variant:normal;font-weight:normal;font-size:22.22221947px;font-family:Helvetica;-inkscape-font-specification:Helvetica;writing-mode:lr-tb;fill:#000000;fill-opacity:0;fill-rule:nonzero;stroke:none"
             transform="translate(0,20.44488)"><tspan
               id="tspan78"
               y="0"
               x="0 17.284443 29.635553 35.808884 48.159996 64.199997 76.551102">Gateway</tspan></text>
</g></g></g><g
       id="g82"><path
         id="path84"
         style="fill:#3a414a;fill-opacity:1;fill-rule:nonzero;stroke:none"
         d="m 752.8029,710.0423 c -5.0617,0 -7.4691,2.9629 -7.716,7.9629 -0.3086,6.605 6.1728,9.5062 11.9136,6.8519 1.0494,-0.4938 1.7901,-1.5432 2.2839,-2.6543 l -1.9753,-0.5556 c -0.8025,1.5432 -2.2839,2.4691 -4.6913,2.4691 -3.7655,0 -5.4321,-2.4074 -5.4321,-6.1111 0,-3.7654 1.7901,-6.1728 5.6172,-6.2345 2.1605,0 3.8272,0.679 4.8766,1.6666 v 2.7778 h -4.5679 v 1.7284 h 6.4815 v -5.3086 c -1.5432,-1.5433 -3.7655,-2.5926 -6.7902,-2.5926 m 17.1605,2.4691 c -0.9259,-1.2963 -1.9135,-2.5309 -4.1975,-2.4691 -2.2222,0.0617 -3.5802,1.2963 -3.5802,3.5185 -0.0618,3.9506 3.8888,3.8889 7.716,3.8889 0.1852,2.1605 -0.5555,3.3333 -2.5309,3.3333 -1.4814,-0.0617 -2.5308,-0.4321 -2.5925,-1.9136 l -2.0371,0.1852 c 0.3087,2.284 2.0371,3.2099 4.6914,3.2099 2.7778,0 4.4444,-1.2346 4.4444,-3.9506 v -5.0618 c -0.0617,-1.2345 0.4321,-1.9753 1.7284,-1.6666 v -1.2346 c -1.9136,-0.5555 -3.7654,0.1235 -3.642,2.1605 z m -5.7407,1.0494 c 0,-1.2346 0.7407,-2.0371 1.9753,-2.0371 2.5309,0.1852 3.8889,1.7902 3.7037,4.5679 -2.6543,-0.1234 -5.679,0.3087 -5.679,-2.5308 m 13.0247,-0.3704 c -0.1235,-1.4815 1.1111,-1.7901 2.3457,-1.358 v -1.4815 c -2.0371,-0.6173 -4.321,-0.3086 -4.321,2.4074 v 7.8395 h -1.358 v 1.4198 h 1.4814 l 0.5556,2.6543 h 1.2963 v -2.6543 h 2.1605 v -1.4198 h -2.1605 v -7.4074 m 8.7037,9.0741 c 3.8889,0 5.3086,-2.5926 5.1852,-6.5432 h -8.3334 c 0,-2.4692 0.8642,-4.1358 3.2716,-4.1976 1.605,-0.0617 2.6544,0.7408 3.0247,1.7902 l 1.7284,-0.4939 c -0.679,-1.7284 -2.2839,-2.7777 -4.7531,-2.7777 -3.5802,0 -5.432,2.2839 -5.3703,6.1728 0.0617,3.7654 1.6049,6.0494 5.2469,6.0494 z m 3.2099,-5 c 0.3703,3.7037 -4.6914,4.7531 -5.9877,1.7284 -0.1852,-0.4321 -0.3704,-1.0494 -0.3704,-1.7284 h 6.3581 m 15.679,-6.9753 h -2.2222 l -2.4692,10.1234 -2.5308,-10.1234 h -2.2223 l -3.3333,11.7284 h 1.9753 l 2.4074,-10.1235 2.6543,10.1235 h 2.0988 l 2.5309,-10.1235 2.5926,10.1235 h 1.9135 m 8.5803,-9.5062 c -0.9259,-1.2963 -1.9136,-2.5309 -4.1975,-2.4691 -2.2223,0.0617 -3.5803,1.2963 -3.5803,3.5185 -0.0617,3.9506 3.8889,3.8889 7.7161,3.8889 0.1851,2.1605 -0.5556,3.3333 -2.5309,3.3333 -1.4815,-0.0617 -2.5309,-0.4321 -2.5926,-1.9136 l -2.037,0.1852 c 0.3086,2.284 2.037,3.2099 4.6913,3.2099 2.7778,0 4.4445,-1.2346 4.4445,-3.9506 v -5.0618 c -0.0618,-1.2345 0.4321,-1.9753 1.7284,-1.6666 v -1.2346 c -1.9136,-0.5555 -3.7655,0.1235 -3.642,2.1605 z m -5.7408,1.0494 c 0,-1.2346 0.7408,-2.0371 1.9754,-2.0371 2.5308,0.1852 3.8888,1.7902 3.7037,4.5679 -2.6544,-0.1234 -5.6791,0.3087 -5.6791,-2.5308 m 20.4321,8.4568 -5.3086,-13.642 c -0.8642,-1.7284 -2.2839,-3.1482 -5,-2.5926 v 1.4815 c 2.4074,-0.3704 3.2716,1.2346 3.9506,3.0864 l -4.6296,11.6667 h 2.0988 l 3.5185,-9.6297 3.3333,9.6297 h 2.037" /><path
         id="path86"
         style="fill:#ffffff;fill-opacity:1;fill-rule:nonzero;stroke:none"
         d="m 688.8462,429.567 c 0,3.3137 2.6862,6 6,6 h 138.7692 c 3.3137,0 6,-2.6863 6,-6 v -198 c 0,-3.3138 -2.6863,-6 -6,-6 H 694.8462 c -3.3138,0 -6,2.6862 -6,6 z" /><g
         transform="matrix(1,0,0,-1,688.8462,435.567)"
         id="g88"><path
           id="path90"
           style="fill:none;stroke:#3a414a;stroke-width:1;stroke-linecap:butt;stroke-linejoin:miter;stroke-miterlimit:4;stroke-dasharray:none;stroke-opacity:1"
           d="M 0,6 C 0,2.686292 2.686292,0 6,0 h 138.7692 c 3.3137,0 6,2.686292 6,6 v 198 c 0,3.3137 -2.6863,6 -6,6 H 6 c -3.313708,0 -6,-2.6863 -6,-6 z" /></g></g><g
       id="g92"><g
         clip-path="url(#clipPath98)"
         id="g94"><g
           transform="matrix(1,0,0,-1,745.8585,341.4003)"
           id="g100"><text
             id="text104"
             style="font-variant:normal;font-weight:normal;font-size:22.22221947px;font-family:Helvetica;-inkscape-font-specification:Helvetica;writing-mode:lr-tb;fill:#000000;fill-opacity:0;fill-rule:nonzero;stroke:none"
             transform="translate(0,20.44488)"><tspan
               id="tspan102"
               y="0"
               x="0 12.359999 24.719997 35.831108">Loki</tspan></text>
</g></g></g><g
       id="g106"><path
         id="path108"
         style="fill:#3a414a;fill-opacity:1;fill-rule:nonzero;stroke:none"
         d="m 745.8585,325.2892 v 15.3086 h 2.037 v -13.642 h 7.7161 v -1.6666 h -9.7531 m 16.6667,11.9753 c 3.8271,0.0617 5.2469,-2.284 5.2469,-6.1111 0.0617,-3.8889 -1.6667,-6.1111 -5.3087,-6.1111 -3.6419,0 -5.1234,2.4074 -5.1851,6.1111 0,4.074 1.7283,6.1111 5.2469,6.1111 z m -0.0618,-10.7408 c 2.7161,-0.0617 3.2716,1.9136 3.2716,4.6297 0,2.6543 -0.4938,4.6296 -3.1481,4.6296 -2.6543,0 -3.2716,-1.9753 -3.2716,-4.6296 0,-2.6543 0.6173,-4.5679 3.1481,-4.6297 m 15.0618,-1.2345 -3.9507,5.3703 -1.4197,-1.1728 v -4.1975 h -1.9753 v 16.1111 h 1.9753 v -10.0617 l 5.1235,5.679 h 2.2839 l -4.7531,-5.0618 5.0617,-6.6666 h -2.3456 m 3.7654,14.2592 v 1.8519 h 1.9753 v -1.8519 z m 0,-14.2592 v 11.7284 h 1.9753 v -11.7284 h -1.9753" /><path
         id="path110"
         style="fill:#ffffff;fill-opacity:1;fill-rule:nonzero;stroke:none"
         d="m 1009.231,1234.567 c 0,3.314 2.686,6 6,6 H 1154 c 3.314,0 6,-2.686 6,-6 v -198 c 0,-3.314 -2.686,-6 -6,-6 h -138.769 c -3.314,0 -6,2.686 -6,6 z" /><g
         transform="matrix(1,0,0,-1,1009.231,1240.567)"
         id="g112"><path
           id="path114"
           style="fill:none;stroke:#3a414a;stroke-width:1;stroke-linecap:butt;stroke-linejoin:miter;stroke-miterlimit:4;stroke-dasharray:none;stroke-opacity:1"
           d="M 0,6 C 0,2.686292 2.686292,0 6,0 h 138.7692 c 3.3137,0 6,2.686292 6,6 v 198 c 0,3.3137 -2.6863,6 -6,6 H 6 c -3.313708,0 -6,-2.6863 -6,-6 z" /></g></g><g
       id="g116"><g
         clip-path="url(#clipPath122)"
         id="g118"><g
           transform="matrix(1,0,0,-1,1045.441,1147.511)"
           id="g124"><text
             id="text128"
             style="font-variant:normal;font-weight:normal;font-size:22.22221947px;font-family:Helvetica;-inkscape-font-specification:Helvetica;writing-mode:lr-tb;fill:#000000;fill-opacity:0;fill-rule:nonzero;stroke:none"
             transform="translate(0,20.44488)"><tspan
               id="tspan126"
               y="0"
               x="0 17.284443 24.684443 37.044441 43.217773 55.577774 67.937775">Grafana</tspan></text>
</g></g></g><g
       id="g130"><path
         id="path132"
         style="fill:#3a414a;fill-opacity:1;fill-rule:nonzero;stroke:none"
         d="m 1053.465,1130.042 c -5.061,0 -7.469,2.963 -7.716,7.963 -0.308,6.605 6.173,9.506 11.914,6.852 1.049,-0.494 1.79,-1.543 2.284,-2.654 l -1.975,-0.556 c -0.803,1.543 -2.284,2.469 -4.692,2.469 -3.765,0 -5.432,-2.407 -5.432,-6.111 0,-3.765 1.79,-6.173 5.617,-6.234 2.161,0 3.827,0.679 4.877,1.666 v 2.778 h -4.568 v 1.728 h 6.481 v -5.308 c -1.543,-1.543 -3.765,-2.593 -6.79,-2.593 m 15.494,10.309 c -4.815,0.988 -3.271,-5.617 -3.518,-10.062 h -1.976 l -0.061,11.729 h 1.851 c 0.062,-0.741 -0.061,-1.791 0.124,-2.408 0.37,1.667 1.42,3.025 3.58,2.531 v -1.79 m 9.013,-7.84 c -0.926,-1.296 -1.914,-2.53 -4.198,-2.469 -2.222,0.062 -3.58,1.297 -3.58,3.519 -0.062,3.95 3.889,3.889 7.716,3.889 0.185,2.16 -0.556,3.333 -2.531,3.333 -1.482,-0.062 -2.531,-0.432 -2.593,-1.914 l -2.037,0.186 c 0.309,2.284 2.037,3.209 4.692,3.209 2.777,0 4.444,-1.234 4.444,-3.95 v -5.062 c -0.062,-1.234 0.432,-1.975 1.728,-1.667 v -1.234 c -1.913,-0.556 -3.765,0.123 -3.641,2.16 z m -5.741,1.05 c 0,-1.235 0.741,-2.037 1.975,-2.037 2.531,0.185 3.889,1.79 3.704,4.568 -2.655,-0.124 -5.679,0.308 -5.679,-2.531 m 15.617,11.173 c -1.914,0.555 -2.593,-0.618 -2.346,-2.716 h 2.346 v -1.42 h -2.346 v -10.309 h -1.913 v 10.309 h -1.667 v 1.42 h 1.667 c -0.432,3.209 1.049,5.061 4.259,4.197 v -1.481 m 8.642,-12.223 c -0.926,-1.296 -1.914,-2.53 -4.198,-2.469 -2.222,0.062 -3.58,1.297 -3.58,3.519 -0.061,3.95 3.889,3.889 7.716,3.889 0.185,2.16 -0.555,3.333 -2.531,3.333 -1.481,-0.062 -2.53,-0.432 -2.592,-1.914 l -2.037,0.186 c 0.308,2.284 2.037,3.209 4.691,3.209 2.778,0 4.445,-1.234 4.445,-3.95 v -5.062 c -0.062,-1.234 0.432,-1.975 1.728,-1.667 v -1.234 c -1.914,-0.556 -3.765,0.123 -3.642,2.16 z m -5.741,1.05 c 0,-1.235 0.741,-2.037 1.976,-2.037 2.53,0.185 3.888,1.79 3.703,4.568 -2.654,-0.124 -5.679,0.308 -5.679,-2.531 m 16.605,8.703 c 5.494,0.247 3.272,-7.16 3.704,-11.975 h -1.975 v 7.469 c 0,1.914 -0.494,3.025 -2.408,2.963 -4.444,-0.123 -2.716,-6.296 -3.024,-10.432 h -1.976 l -0.062,11.729 h 1.852 c 0.062,-0.618 -0.061,-1.482 0.124,-1.976 0.679,1.358 1.79,2.161 3.765,2.222 m 13.827,-9.753 c -0.926,-1.296 -1.913,-2.53 -4.197,-2.469 -2.222,0.062 -3.58,1.297 -3.58,3.519 -0.062,3.95 3.888,3.889 7.716,3.889 0.185,2.16 -0.556,3.333 -2.531,3.333 -1.482,-0.062 -2.531,-0.432 -2.593,-1.914 l -2.037,0.186 c 0.309,2.284 2.037,3.209 4.692,3.209 2.777,0 4.444,-1.234 4.444,-3.95 v -5.062 c -0.062,-1.234 0.432,-1.975 1.728,-1.667 v -1.234 c -1.913,-0.556 -3.765,0.123 -3.642,2.16 z m -5.74,1.05 c 0,-1.235 0.74,-2.037 1.975,-2.037 2.531,0.185 3.889,1.79 3.704,4.568 -2.655,-0.124 -5.679,0.308 -5.679,-2.531" /><path
         id="path134"
         style="fill:#ffffff;fill-opacity:1;fill-rule:nonzero;stroke:none"
         d="m 387.3077,1234.567 c 0,3.314 2.6863,6 6,6 h 138.7692 c 3.3137,0 6,-2.686 6,-6 v -198 c 0,-3.314 -2.6863,-6 -6,-6 H 393.3077 c -3.3137,0 -6,2.686 -6,6 z" /><g
         transform="matrix(1,0,0,-1,387.3077,1240.567)"
         id="g136"><path
           id="path138"
           style="fill:none;stroke:#3a414a;stroke-width:1;stroke-linecap:butt;stroke-linejoin:miter;stroke-miterlimit:4;stroke-dasharray:none;stroke-opacity:1"
           d="M 0,6 C 0,2.686292 2.686292,0 6,0 h 138.7692 c 3.3137,0 6,2.686292 6,6 v 198 c 0,3.3137 -2.6863,6 -6,6 H 6 c -3.313708,0 -6,-2.6863 -6,-6 z" /></g></g><g
       id="g140"><g
         clip-path="url(#clipPath146)"
         id="g142"><g
           transform="matrix(1,0,0,-1,408.6102,1145.63)"
           id="g148"><text
             id="text152"
             style="font-variant:normal;font-weight:normal;font-size:22.22221947px;font-family:Helvetica;-inkscape-font-specification:Helvetica;writing-mode:lr-tb;fill:#000000;fill-opacity:0;fill-rule:nonzero;stroke:none"
             transform="translate(0,20.44488)"><tspan
               id="tspan150"
               y="0"
               x="0 14.822221 29.644442">API</tspan></text>
</g></g></g><g
       id="g154"><path
         id="path156"
         style="fill:#3a414a;fill-opacity:1;fill-rule:nonzero;stroke:none"
         d="m 421.2028,1130.289 -1.7284,4.445 h -6.9753 l -1.7284,-4.445 h -2.1605 l 6.2345,15.309 h 2.3457 l 6.1111,-15.309 z m -2.3457,6.111 -2.9013,7.593 c -0.7407,-2.778 -1.9135,-5.062 -2.8395,-7.593 h 5.7408 m 6.358,9.198 c 5.3704,-0.062 11.7901,0.926 11.7901,-4.63 0,-4.815 -4.7531,-4.938 -9.7531,-4.691 v -5.988 h -2.037 z m 2.037,-7.716 c 3.5186,0 7.6544,-0.679 7.6544,3.086 0,3.642 -4.1976,2.901 -7.6544,2.963 v -6.049 m 12.963,-7.593 v 15.309 h 2.0988 v -15.309 h -2.0988" /></g><g
       id="g158"><g
         clip-path="url(#clipPath164)"
         id="g160"><g
           transform="matrix(1,0,0,-1,451.141,1142.82)"
           id="g166"><text
             id="text170"
             style="font-variant:normal;font-weight:normal;font-size:22.22221947px;font-family:Helvetica;-inkscape-font-specification:Helvetica;writing-mode:lr-tb;fill:#000000;fill-opacity:0;fill-rule:nonzero;stroke:none"
             transform="translate(0,20.44488)"><tspan
               id="tspan168"
               y="0"
               x="0 11.11111 23.471109 30.871107 41.98222 54.342216 60.526661">server,</tspan></text>
</g></g></g><g
       id="g172"><path
         id="path174"
         style="fill:#3a414a;fill-opacity:1;fill-rule:nonzero;stroke:none"
         d="m 458.8571,1139.116 c -0.1852,2.099 -5.3087,2.346 -5.3704,0 0.9259,-3.271 7.0988,-0.74 7.3457,-5.555 0.2469,-4.815 -9.2593,-4.568 -9.6914,-0.494 l 1.7284,0.309 c 0.2469,-2.223 5.9877,-2.778 6.0494,0 -0.6173,3.456 -6.9753,0.926 -7.2839,5.555 -0.247,3.519 5.0617,3.889 7.5308,2.593 0.7408,-0.432 1.2963,-1.173 1.4815,-2.161 m 7.1605,2.901 c 3.8889,0 5.3086,-2.592 5.1852,-6.543 h -8.3334 c 0,-2.469 0.8642,-4.136 3.2716,-4.197 1.605,-0.062 2.6544,0.74 3.0247,1.79 l 1.7284,-0.494 c -0.679,-1.728 -2.2839,-2.778 -4.7531,-2.778 -3.5802,0 -5.432,2.284 -5.3703,6.173 0.0617,3.766 1.6049,6.049 5.2469,6.049 z m 3.2099,-5 c 0.3703,3.704 -4.6914,4.754 -5.9877,1.729 -0.1852,-0.432 -0.3704,-1.05 -0.3704,-1.729 h 6.3581 m 10,3.087 c -4.8148,0.988 -3.2716,-5.617 -3.5185,-10.062 h -1.9754 l -0.0617,11.729 h 1.8519 c 0.0617,-0.741 -0.0618,-1.791 0.1234,-2.408 0.3704,1.667 1.4198,3.025 3.5803,2.531 v -1.79 m 6.9753,-10.062 h -2.3457 l -4.2593,11.729 h 2.0988 l 3.3333,-10.186 3.4568,10.186 h 2.0988 m 6.2346,0.246 c 3.8889,0 5.3086,-2.592 5.1851,-6.543 h -8.3333 c 0,-2.469 0.8642,-4.136 3.2716,-4.197 1.605,-0.062 2.6543,0.74 3.0247,1.79 l 1.7284,-0.494 c -0.679,-1.728 -2.2839,-2.778 -4.7531,-2.778 -3.5802,0 -5.4321,2.284 -5.3704,6.173 0.0618,3.766 1.605,6.049 5.247,6.049 z m 3.2098,-5 c 0.3704,3.704 -4.6913,4.754 -5.9876,1.729 -0.1852,-0.432 -0.3704,-1.05 -0.3704,-1.729 h 6.358 m 10,3.087 c -4.8148,0.988 -3.2716,-5.617 -3.5185,-10.062 h -1.9753 l -0.0617,11.729 h 1.8518 c 0.0618,-0.741 -0.0617,-1.791 0.1235,-2.408 0.3704,1.667 1.4197,3.025 3.5802,2.531 v -1.79 m 3.2716,-7.716 c 0.0618,-2.099 0,-4.012 -0.8642,-5.185 h -1.358 c 0.5556,0.802 1.0494,1.605 1.0494,2.839 h -0.9877 v 2.346 h 2.1605" /><path
         id="path176"
         style="fill:#ffffff;fill-opacity:1;fill-rule:nonzero;stroke:none"
         d="m 180,1654.567 c 0,3.314 2.6863,6 6,6 h 138.7692 c 3.3137,0 6,-2.686 6,-6 v -198 c 0,-3.314 -2.6863,-6 -6,-6 H 186 c -3.3137,0 -6,2.686 -6,6 z" /><g
         transform="matrix(1,0,0,-1,180,1660.567)"
         id="g178"><path
           id="path180"
           style="fill:none;stroke:#3a414a;stroke-width:1;stroke-linecap:butt;stroke-linejoin:miter;stroke-miterlimit:4;stroke-dasharray:none;stroke-opacity:1"
           d="M 0,6 C 0,2.686292 2.686292,0 6,0 h 138.7692 c 3.3137,0 6,2.686292 6,6 v 198 c 0,3.3137 -2.6863,6 -6,6 H 6 c -3.313708,0 -6,-2.6863 -6,-6 z" /></g></g><g
       id="g182"><g
         clip-path="url(#clipPath188)"
         id="g184"><g
           transform="matrix(1,0,0,-1,237.5988,1566.524)"
           id="g190"><text
             id="text194"
             style="font-variant:normal;font-weight:normal;font-size:22.22221947px;font-family:Helvetica;-inkscape-font-specification:Helvetica;writing-mode:lr-tb;fill:#000000;fill-opacity:0;fill-rule:nonzero;stroke:none"
             transform="translate(0,20.44488)"><tspan
               id="tspan192"
               y="0"
               x="0 14.822221 27.182219">Pod</tspan></text>
</g></g></g><g
       id="g196"><path
         id="path198"
         style="fill:#3a414a;fill-opacity:1;fill-rule:nonzero;stroke:none"
         d="m 237.5988,1565.598 c 5.3703,-0.062 11.7901,0.926 11.7901,-4.63 0,-4.815 -4.7531,-4.938 -9.7531,-4.691 v -5.988 h -2.037 z m 2.037,-7.716 c 3.5185,0 7.6543,-0.679 7.6543,3.086 0,3.642 -4.1975,2.901 -7.6543,2.963 v -6.049 m 17.0988,4.382 c 3.8271,0.062 5.2469,-2.283 5.2469,-6.111 0.0617,-3.889 -1.6667,-6.111 -5.3087,-6.111 -3.6419,0 -5.1234,2.408 -5.1851,6.111 0,4.074 1.7283,6.111 5.2469,6.111 z m -0.0618,-10.74 c 2.7161,-0.062 3.2716,1.913 3.2716,4.629 0,2.655 -0.4938,4.63 -3.1481,4.63 -2.6543,0 -3.2716,-1.975 -3.2716,-4.63 0,-2.654 0.6173,-4.568 3.1481,-4.629 m 11.4815,10.74 c 1.9136,0 2.963,-0.802 3.7037,-2.037 l -0.0617,6.173 h 1.9753 l 0.0617,-16.111 h -1.8518 c -0.1235,0.617 0,1.42 -0.1852,1.914 -0.6173,-1.42 -1.7284,-2.161 -3.642,-2.161 -3.2716,0 -4.2592,2.408 -4.321,6.05 0,4.074 1.4198,6.172 4.321,6.172 z m 0.5556,-1.481 c -2.4692,0 -2.8395,-2.099 -2.8395,-4.63 0,-2.469 0.3703,-4.568 2.7777,-4.568 2.5926,0 3.1482,1.976 3.1482,4.692 0,2.592 -0.5556,4.568 -3.0864,4.506" /><path
         id="path200"
         style="fill:#ffffff;fill-opacity:1;fill-rule:nonzero;stroke:none"
         d="m 1009.231,1654.567 c 0,3.314 2.686,6 6,6 H 1154 c 3.314,0 6,-2.686 6,-6 v -198 c 0,-3.314 -2.686,-6 -6,-6 h -138.769 c -3.314,0 -6,2.686 -6,6 z" /><g
         transform="matrix(1,0,0,-1,1009.231,1660.567)"
         id="g202"><path
           id="path204"
           style="fill:none;stroke:#3a414a;stroke-width:1;stroke-linecap:butt;stroke-linejoin:miter;stroke-miterlimit:4;stroke-dasharray:none;stroke-opacity:1"
           d="M 0,6 C 0,2.686292 2.686292,0 6,0 h 138.7692 c 3.3137,0 6,2.686292 6,6 v 198 c 0,3.3137 -2.6863,6 -6,6 H 6 c -3.313708,0 -6,-2.6863 -6,-6 z" /></g></g><g
       id="g206"><g
         clip-path="url(#clipPath212)"
         id="g208"><g
           transform="matrix(1,0,0,-1,1018.527,1566.4)"
           id="g214"><text
             id="text218"
             style="font-variant:normal;font-weight:normal;font-size:22.22221947px;font-family:Helvetica;-inkscape-font-specification:Helvetica;writing-mode:lr-tb;fill:#000000;fill-opacity:0;fill-rule:nonzero;stroke:none"
             transform="translate(0,20.44488)"><tspan
               id="tspan216"
               y="0"
               x="0 20.584442 32.946663">Web</tspan></text>
</g></g></g><g
       id="g220"><path
         id="path222"
         style="fill:#3a414a;fill-opacity:1;fill-rule:nonzero;stroke:none"
         d="m 1034.823,1550.289 h -2.469 l -3.457,12.963 -3.395,-12.963 h -2.469 l -4.506,15.309 h 2.161 l 3.642,-13.457 0.925,3.951 2.655,9.506 h 1.975 l 3.642,-13.457 3.642,13.457 h 2.161 m 5.74,-3.334 c 3.889,0 5.309,-2.592 5.185,-6.543 h -8.333 c 0,-2.469 0.864,-4.136 3.272,-4.197 1.605,-0.062 2.654,0.74 3.024,1.79 l 1.729,-0.494 c -0.679,-1.728 -2.284,-2.778 -4.753,-2.778 -3.581,0 -5.432,2.284 -5.371,6.173 0.062,3.766 1.605,6.049 5.247,6.049 z m 3.21,-5 c 0.371,3.704 -4.691,4.754 -5.988,1.729 -0.185,-0.432 -0.37,-1.05 -0.37,-1.729 h 6.358 m 10.062,5 c 3.271,0 4.259,-2.407 4.321,-6.049 0,-4.074 -1.42,-6.173 -4.321,-6.173 -1.914,0.062 -3.025,0.679 -3.642,2.099 l -0.124,-1.852 h -1.913 l 0.062,16.111 h 1.975 v -6.234 c 0.617,1.419 1.728,2.098 3.642,2.098 z m -0.494,-10.74 c 2.469,0 2.778,2.099 2.778,4.629 0,2.47 -0.309,4.63 -2.778,4.568 -2.593,0 -3.148,-1.975 -3.148,-4.691 0,-2.654 0.617,-4.506 3.148,-4.506" /></g><g
       id="g224"><g
         clip-path="url(#clipPath230)"
         id="g226"><g
           transform="matrix(1,0,0,-1,1071.613,1566.647)"
           id="g232"><text
             id="text236"
             style="font-variant:normal;font-weight:normal;font-size:22.22221947px;font-family:Helvetica;-inkscape-font-specification:Helvetica;writing-mode:lr-tb;fill:#000000;fill-opacity:0;fill-rule:nonzero;stroke:none"
             transform="translate(0,20.44488)"><tspan
               id="tspan234"
               y="0"
               x="0 14.822221 22.222219 34.582218 50.631107 61.742214 74.102211">Browser</tspan></text>
</g></g></g><g
       id="g238"><path
         id="path240"
         style="fill:#3a414a;fill-opacity:1;fill-rule:nonzero;stroke:none"
         d="m 1079.638,1558.376 c 2.161,-0.309 3.766,-1.42 3.766,-3.766 0,-5.37 -6.544,-4.197 -11.791,-4.321 v 15.309 c 4.692,-0.185 10.926,1.049 10.926,-3.704 0,-2.037 -1.172,-3.086 -2.901,-3.518 z m -5.987,0.679 c 3.086,0.061 6.79,-0.556 6.79,2.592 0,2.901 -3.889,2.222 -6.79,2.284 z m 0,-7.099 c 3.395,0.123 7.654,-0.864 7.654,2.778 0,3.456 -4.321,2.592 -7.654,2.716 v -5.494 m 17.962,8.395 c -4.814,0.988 -3.271,-5.617 -3.518,-10.062 h -1.975 l -0.062,11.729 h 1.852 c 0.062,-0.741 -0.062,-1.791 0.123,-2.408 0.371,1.667 1.42,3.025 3.58,2.531 v -1.79 m 6.482,1.913 c 3.827,0.062 5.247,-2.283 5.247,-6.111 0.062,-3.889 -1.667,-6.111 -5.309,-6.111 -3.642,0 -5.123,2.408 -5.185,6.111 0,4.074 1.728,6.111 5.247,6.111 z m -0.062,-10.74 c 2.716,-0.062 3.272,1.913 3.272,4.629 0,2.655 -0.494,4.63 -3.148,4.63 -2.655,0 -3.272,-1.975 -3.272,-4.63 0,-2.654 0.617,-4.568 3.148,-4.629 m 18.951,-1.235 h -2.222 l -2.47,10.124 -2.53,-10.124 h -2.223 l -3.333,11.729 h 1.975 l 2.408,-10.124 2.654,10.124 h 2.099 l 2.531,-10.124 2.592,10.124 h 1.914 m 8.21,-2.902 c -0.185,2.099 -5.309,2.346 -5.371,0 0.926,-3.271 7.099,-0.74 7.346,-5.555 0.247,-4.815 -9.259,-4.568 -9.691,-0.494 l 1.728,0.309 c 0.247,-2.223 5.988,-2.778 6.05,0 -0.618,3.456 -6.976,0.926 -7.284,5.555 -0.247,3.519 5.061,3.889 7.53,2.593 0.741,-0.432 1.297,-1.173 1.482,-2.161 m 7.16,2.901 c 3.889,0 5.309,-2.592 5.186,-6.543 h -8.334 c 0,-2.469 0.864,-4.136 3.272,-4.197 1.605,-0.062 2.654,0.74 3.025,1.79 l 1.728,-0.494 c -0.679,-1.728 -2.284,-2.778 -4.753,-2.778 -3.58,0 -5.432,2.284 -5.371,6.173 0.062,3.766 1.605,6.049 5.247,6.049 z m 3.21,-5 c 0.371,3.704 -4.691,4.754 -5.987,1.729 -0.186,-0.432 -0.371,-1.05 -0.371,-1.729 h 6.358 m 10,3.087 c -4.815,0.988 -3.271,-5.617 -3.518,-10.062 h -1.976 l -0.061,11.729 h 1.852 c 0.061,-0.741 -0.062,-1.791 0.123,-2.408 0.37,1.667 1.42,3.025 3.58,2.531 v -1.79" /><path
         id="path242"
         style="fill:#ffffff;fill-opacity:1;fill-rule:nonzero;stroke:none"
         d="m 387.3077,1654.567 c 0,3.314 2.6863,6 6,6 h 138.7692 c 3.3137,0 6,-2.686 6,-6 v -198 c 0,-3.314 -2.6863,-6 -6,-6 H 393.3077 c -3.3137,0 -6,2.686 -6,6 z" /><g
         transform="matrix(1,0,0,-1,387.3077,1660.567)"
         id="g244"><path
           id="path246"
           style="fill:none;stroke:#3a414a;stroke-width:1;stroke-linecap:butt;stroke-linejoin:miter;stroke-miterlimit:4;stroke-dasharray:none;stroke-opacity:1"
           d="M 0,6 C 0,2.686292 2.686292,0 6,0 h 138.7692 c 3.3137,0 6,2.686292 6,6 v 198 c 0,3.3137 -2.6863,6 -6,6 H 6 c -3.313708,0 -6,-2.6863 -6,-6 z" /></g></g><g
       id="g248"><g
         clip-path="url(#clipPath254)"
         id="g250"><g
           transform="matrix(1,0,0,-1,444.9065,1566.524)"
           id="g256"><text
             id="text260"
             style="font-variant:normal;font-weight:normal;font-size:22.22221947px;font-family:Helvetica;-inkscape-font-specification:Helvetica;writing-mode:lr-tb;fill:#000000;fill-opacity:0;fill-rule:nonzero;stroke:none"
             transform="translate(0,20.44488)"><tspan
               id="tspan258"
               y="0"
               x="0 14.822221 27.182219">Pod</tspan></text>
</g></g></g><g
       id="g262"><path
         id="path264"
         style="fill:#3a414a;fill-opacity:1;fill-rule:nonzero;stroke:none"
         d="m 444.9065,1565.598 c 5.3703,-0.062 11.7901,0.926 11.7901,-4.63 0,-4.815 -4.7531,-4.938 -9.7531,-4.691 v -5.988 h -2.037 z m 2.037,-7.716 c 3.5185,0 7.6543,-0.679 7.6543,3.086 0,3.642 -4.1975,2.901 -7.6543,2.963 v -6.049 m 17.0988,4.382 c 3.8271,0.062 5.2469,-2.283 5.2469,-6.111 0.0617,-3.889 -1.6667,-6.111 -5.3087,-6.111 -3.6419,0 -5.1234,2.408 -5.1852,6.111 0,4.074 1.7284,6.111 5.247,6.111 z m -0.0618,-10.74 c 2.7161,-0.062 3.2716,1.913 3.2716,4.629 0,2.655 -0.4938,4.63 -3.1481,4.63 -2.6543,0 -3.2716,-1.975 -3.2716,-4.63 0,-2.654 0.6173,-4.568 3.1481,-4.629 m 11.4815,10.74 c 1.9136,0 2.963,-0.802 3.7037,-2.037 l -0.0617,6.173 h 1.9753 l 0.0617,-16.111 h -1.8518 c -0.1235,0.617 0,1.42 -0.1852,1.914 -0.6173,-1.42 -1.7284,-2.161 -3.642,-2.161 -3.2716,0 -4.2592,2.408 -4.321,6.05 0,4.074 1.4198,6.172 4.321,6.172 z m 0.5556,-1.481 c -2.4692,0 -2.8395,-2.099 -2.8395,-4.63 0,-2.469 0.3703,-4.568 2.7777,-4.568 2.5926,0 3.1482,1.976 3.1482,4.692 0,2.592 -0.5556,4.568 -3.0864,4.506" /><path
         id="path266"
         style="fill:#ffffff;fill-opacity:1;fill-rule:nonzero;stroke:none"
         d="m 594.6154,1654.567 c 0,3.314 2.6863,6 6,6 h 138.7692 c 3.3137,0 6,-2.686 6,-6 v -198 c 0,-3.314 -2.6863,-6 -6,-6 H 600.6154 c -3.3137,0 -6,2.686 -6,6 z" /><g
         transform="matrix(1,0,0,-1,594.6154,1660.567)"
         id="g268"><path
           id="path270"
           style="fill:none;stroke:#3a414a;stroke-width:1;stroke-linecap:butt;stroke-linejoin:miter;stroke-miterlimit:4;stroke-dasharray:none;stroke-opacity:1"
           d="M 0,6 C 0,2.686292 2.686292,0 6,0 h 138.7692 c 3.3137,0 6,2.686292 6,6 v 198 c 0,3.3137 -2.6863,6 -6,6 H 6 c -3.313708,0 -6,-2.6863 -6,-6 z" /></g></g><g
       id="g272"><g
         clip-path="url(#clipPath278)"
         id="g274"><g
           transform="matrix(1,0,0,-1,652.2142,1566.524)"
           id="g280"><text
             id="text284"
             style="font-variant:normal;font-weight:normal;font-size:22.22221947px;font-family:Helvetica;-inkscape-font-specification:Helvetica;writing-mode:lr-tb;fill:#000000;fill-opacity:0;fill-rule:nonzero;stroke:none"
             transform="translate(0,20.44488)"><tspan
               id="tspan282"
               y="0"
               x="0 14.822221 27.182219">Pod</tspan></text>
</g></g></g><g
       id="g286"><path
         id="path288"
         style="fill:#3a414a;fill-opacity:1;fill-rule:nonzero;stroke:none"
         d="m 652.2142,1565.598 c 5.3703,-0.062 11.7901,0.926 11.7901,-4.63 0,-4.815 -4.7531,-4.938 -9.7531,-4.691 v -5.988 h -2.037 z m 2.037,-7.716 c 3.5185,0 7.6543,-0.679 7.6543,3.086 0,3.642 -4.1975,2.901 -7.6543,2.963 v -6.049 m 17.0988,4.382 c 3.8271,0.062 5.2469,-2.283 5.2469,-6.111 0.0617,-3.889 -1.6667,-6.111 -5.3087,-6.111 -3.642,0 -5.1234,2.408 -5.1852,6.111 0,4.074 1.7284,6.111 5.247,6.111 z m -0.0618,-10.74 c 2.7161,-0.062 3.2716,1.913 3.2716,4.629 0,2.655 -0.4938,4.63 -3.1481,4.63 -2.6543,0 -3.2716,-1.975 -3.2716,-4.63 0,-2.654 0.6173,-4.568 3.1481,-4.629 m 11.4815,10.74 c 1.9136,0 2.963,-0.802 3.7037,-2.037 l -0.0617,6.173 h 1.9753 l 0.0617,-16.111 h -1.8518 c -0.1235,0.617 0,1.42 -0.1852,1.914 -0.6173,-1.42 -1.7284,-2.161 -3.642,-2.161 -3.2716,0 -4.2593,2.408 -4.321,6.05 0,4.074 1.4198,6.172 4.321,6.172 z m 0.5556,-1.481 c -2.4692,0 -2.8395,-2.099 -2.8395,-4.63 0,-2.469 0.3703,-4.568 2.7777,-4.568 2.5926,0 3.1482,1.976 3.1482,4.692 0,2.592 -0.5556,4.568 -3.0864,4.506" /><path
         id="path290"
         style="fill:#3a414a;fill-opacity:1;fill-rule:nonzero;stroke:none"
         d="m 573.7674,715.067 h -34.6905 v 1 h 34.6905 z m 98.6939,0 h -56.3729 v 1 h 56.3729 z" /><g
         transform="matrix(1,0,0,-1,0,1800.567)"
         id="g292"><path
           id="path294"
           style="fill:none;stroke:#3a414a;stroke-width:0.05;stroke-linecap:butt;stroke-linejoin:miter;stroke-miterlimit:4;stroke-dasharray:none;stroke-opacity:1"
           d="m 573.7674,1085.5 h -34.6905 v -1 h 34.6905 z m 98.6939,0 h -56.3729 v -1 h 56.3729 z" /></g><path
         id="path296"
         style="fill:#3a414a;fill-opacity:1;fill-rule:nonzero;stroke:none"
         d="m 538.5769,715.067 h 0.51282 v 1 h -0.51282 z" /><path
         id="path298"
         style="fill:#3a414a;fill-opacity:1;fill-rule:nonzero;stroke:none"
         d="m 539.1147,715.042 h -0.5628 v 1.05 h 0.5628 z m -0.5128,1 v -0.95 h 0.4628 v 0.95 z" /><g
         transform="matrix(1,0,0,-1,0,1800.567)"
         id="g300"><path
           id="path302"
           style="fill:none;stroke:#3a414a;stroke-width:0.05;stroke-linecap:butt;stroke-linejoin:miter;stroke-miterlimit:4;stroke-dasharray:none;stroke-opacity:1"
           d="m 539.1147,1085.525 h -0.5628 v -1.05 h 0.5628 z m -0.5128,-1 v 0.95 h 0.4628 v -0.95 z" /></g><path
         id="path304"
         style="fill:#3a414a;fill-opacity:1;fill-rule:nonzero;stroke:none"
         d="m 687.2271,715.567 -14.2658,-4.6353 v 9.2705 z" /><path
         id="path306"
         style="fill:#3a414a;fill-opacity:1;fill-rule:nonzero;stroke:none"
         d="m 688.8451,715.567 -16.3838,-5.3235 v 10.6469 z m -15.3838,-3.9471 12.1478,3.9471 -12.1478,3.9471 z" /><g
         transform="matrix(1,0,0,-1,0,1800.567)"
         id="g308"><path
           id="path310"
           style="fill:none;stroke:#3a414a;stroke-width:0.05;stroke-linecap:butt;stroke-linejoin:miter;stroke-miterlimit:4;stroke-dasharray:none;stroke-opacity:1"
           d="m 688.8451,1085 -16.3838,5.323 v -10.646 z m -15.3838,3.947 12.1478,-3.947 -12.1478,-3.947 z" /></g></g><g
       id="g312"><g
         clip-path="url(#clipPath318)"
         id="g314"><g
           transform="matrix(1,0,0,-1,574.9526,724.2583)"
           id="g320"><text
             id="text324"
             style="font-variant:normal;font-weight:normal;font-size:17.77778053px;font-family:Helvetica;-inkscape-font-specification:Helvetica;writing-mode:lr-tb;fill:#000000;fill-opacity:0;fill-rule:nonzero;stroke:none"
             transform="translate(0,16.3559)"><tspan
               id="tspan322"
               y="0"
               x="0 9.8880014 19.776003 29.664003">Logs</tspan></text>
</g></g></g><g
       id="g326"><path
         id="path328"
         style="fill:#333333;fill-opacity:1;fill-rule:nonzero;stroke:none"
         d="m 574.9526,712.0114 v 12.2469 h 2.5679 v -10.2716 h 6.5679 v -1.9753 h -9.1358 m 15.0617,9.5802 c 3.1605,0 4.7407,-1.7777 4.7407,-4.8888 0,-3.1605 -1.7283,-4.8889 -4.7901,-4.8889 -3.0123,0 -4.6913,1.7777 -4.6913,4.8889 0,3.0617 1.679,4.8888 4.7407,4.8888 z m -0.0494,-8.0987 c 1.7284,0 2.2222,1.3827 2.2222,3.2099 0,1.9753 -0.4938,3.2098 -2.1234,3.2098 -1.679,0 -2.2222,-1.2839 -2.2222,-3.2098 0,-1.7778 0.4938,-3.2099 2.1234,-3.2099 m 15.0618,-1.1852 c 0.5432,-4.3457 -5.926,-5.2346 -8.0988,-2.5679 -0.1975,0.2963 -0.2963,0.642 -0.3951,1.037 l 2.4198,0.2963 c 0.1481,-0.7901 0.7901,-1.1852 1.679,-1.2345 1.9753,0 2.0741,1.8271 1.9753,3.9012 -0.5432,-1.0864 -1.4815,-1.7284 -3.0123,-1.7284 -2.6173,0 -3.4568,2.1235 -3.4568,4.7901 0,2.7655 0.8889,4.7408 3.6049,4.7901 1.4815,0 2.2716,-0.6913 2.9136,-1.679 l 0.0987,1.4815 h 2.321 z m -4.4445,1.4321 c 1.5803,0 2.0247,1.3333 2.0247,3.1111 0,1.7284 -0.4444,3.0617 -1.9753,3.0617 -1.5803,0 -1.9259,-1.4321 -1.9753,-3.1111 0,-1.7778 0.4444,-3.0617 1.9259,-3.0617 m 12.3951,5.0864 c 0.0494,1.4321 -3.4568,1.679 -3.5062,0.1975 0.7407,-2.2716 5.8272,-0.3456 5.8765,-4.2469 0.0494,-4.0987 -8.0987,-3.7531 -8.4938,-0.4444 l 2.1235,0.3457 c 0.1975,-0.9383 0.9876,-1.2346 2.1728,-1.2346 1.6296,-0.3951 2.8148,1.4815 1.1852,2.0247 -2.1235,0.6913 -5.037,0.5432 -5.1358,3.2592 -0.0988,3.9507 7.6049,3.6544 7.9506,0.3457" /><path
         id="path330"
         style="fill:#3a414a;fill-opacity:1;fill-rule:nonzero;stroke:none"
         d="m 463.1923,1257.451 h -1 v 94.016 h 1 z m 0,115.35 h -1 v 76.766 h 1 z" /><g
         transform="matrix(1,0,0,-1,0,1800.567)"
         id="g332"><path
           id="path334"
           style="fill:none;stroke:#3a414a;stroke-width:0.05;stroke-linecap:butt;stroke-linejoin:miter;stroke-miterlimit:4;stroke-dasharray:none;stroke-opacity:1"
           d="m 463.1923,543.1161 h -1 v -94.0163 h 1 z m 0,-115.3497 h -1 V 351 h 1 z" /></g><path
         id="path336"
         style="fill:#3a414a;fill-opacity:1;fill-rule:nonzero;stroke:none"
         d="m 462.6923,1242.685 -4.6353,14.266 h 9.2706 z" /><path
         id="path338"
         style="fill:#3a414a;fill-opacity:1;fill-rule:nonzero;stroke:none"
         d="m 462.6923,1241.067 -5.3235,16.384 h 10.647 z m -3.9471,15.384 3.9471,-12.148 3.9471,12.148 z" /><g
         transform="matrix(1,0,0,-1,0,1800.567)"
         id="g340"><path
           id="path342"
           style="fill:none;stroke:#3a414a;stroke-width:0.05;stroke-linecap:butt;stroke-linejoin:miter;stroke-miterlimit:4;stroke-dasharray:none;stroke-opacity:1"
           d="m 462.6923,559.5 -5.3235,-16.3839 h 10.647 z m -3.9471,-15.3839 3.9471,12.1478 3.9471,-12.1478 z" /></g><path
         id="path344"
         style="fill:#3a414a;fill-opacity:1;fill-rule:nonzero;stroke:none"
         d="m 462.1923,1449.554 h 1 v 0.5128 h -1 z" /><path
         id="path346"
         style="fill:#3a414a;fill-opacity:1;fill-rule:nonzero;stroke:none"
         d="m 463.2173,1449.529 h -1.05 v 0.563 h 1.05 z m -1,0.513 v -0.463 h 0.95 v 0.463 z" /><g
         transform="matrix(1,0,0,-1,0,1800.567)"
         id="g348"><path
           id="path350"
           style="fill:none;stroke:#3a414a;stroke-width:0.05;stroke-linecap:butt;stroke-linejoin:miter;stroke-miterlimit:4;stroke-dasharray:none;stroke-opacity:1"
           d="m 463.2173,351.0378 h -1.05 v -0.5628 h 1.05 z m -1,-0.5128 v 0.4628 h 0.95 v -0.4628 z" /></g></g><g
       id="g352"><g
         clip-path="url(#clipPath358)"
         id="g354"><g
           transform="matrix(1,0,0,-1,442.717,1370.825)"
           id="g360"><text
             id="text364"
             style="font-variant:normal;font-weight:normal;font-size:17.77778053px;font-family:Helvetica;-inkscape-font-specification:Helvetica;writing-mode:lr-tb;fill:#000000;fill-opacity:0;fill-rule:nonzero;stroke:none"
             transform="translate(0,16.3559)"><tspan
               id="tspan362"
               y="0"
               x="0 9.8880014 19.776003 29.664003">Logs</tspan></text>
</g></g></g><g
       id="g366"><path
         id="path368"
         style="fill:#333333;fill-opacity:1;fill-rule:nonzero;stroke:none"
         d="m 442.717,1358.578 v 12.247 h 2.5679 v -10.271 h 6.5679 v -1.976 h -9.1358 m 15.0617,9.581 c 3.1605,0 4.7408,-1.778 4.7408,-4.889 0,-3.161 -1.7284,-4.889 -4.7902,-4.889 -3.0123,0 -4.6913,1.778 -4.6913,4.889 0,3.061 1.679,4.889 4.7407,4.889 z m -0.0494,-8.099 c 1.7284,0 2.2223,1.383 2.2223,3.21 0,1.975 -0.4939,3.21 -2.1235,3.21 -1.679,0 -2.2222,-1.284 -2.2222,-3.21 0,-1.778 0.4938,-3.21 2.1234,-3.21 m 15.0618,-1.185 c 0.5432,-4.346 -5.926,-5.235 -8.0988,-2.568 -0.1975,0.296 -0.2963,0.642 -0.3951,1.037 l 2.4198,0.296 c 0.1481,-0.79 0.7901,-1.185 1.679,-1.235 1.9753,0 2.0741,1.828 1.9753,3.902 -0.5432,-1.087 -1.4815,-1.729 -3.0123,-1.729 -2.6173,0 -3.4568,2.124 -3.4568,4.79 0,2.766 0.8889,4.741 3.6049,4.791 1.4815,0 2.2716,-0.692 2.9136,-1.679 l 0.0988,1.481 h 2.321 z m -4.4445,1.432 c 1.5803,0 2.0247,1.333 2.0247,3.111 0,1.728 -0.4444,3.062 -1.9753,3.062 -1.5802,0 -1.9259,-1.433 -1.9753,-3.112 0,-1.777 0.4444,-3.061 1.9259,-3.061 m 12.3951,5.086 c 0.0494,1.432 -3.4568,1.679 -3.5062,0.198 0.7408,-2.272 5.8272,-0.346 5.8766,-4.247 0.0493,-4.099 -8.0988,-3.753 -8.4939,-0.445 l 2.1235,0.346 c 0.1975,-0.938 0.9876,-1.235 2.1728,-1.235 1.6297,-0.395 2.8148,1.482 1.1852,2.025 -2.1234,0.691 -5.037,0.543 -5.1358,3.259 -0.0988,3.951 7.605,3.655 7.9506,0.346" /><path
         id="path370"
         style="fill:#3a414a;fill-opacity:1;fill-rule:nonzero;stroke:none"
         d="m 255.8846,1351.633 0.767,-2.835 1.964,-1.964 2.8354,-0.767 h 195.3077 l 3.2212,-0.871 2.3411,-2.341 0.8713,-3.222 v -82.182 h -1 v 82.05 l -0.767,2.835 -1.9639,1.964 -2.8355,0.767 H 261.3182 l -3.2212,0.871 -2.341,2.341 -0.8714,3.222 v 98.066 h 1 z" /><g
         transform="matrix(1,0,0,-1,0,1800.567)"
         id="g372"><path
           id="path374"
           style="fill:none;stroke:#3a414a;stroke-width:0.05;stroke-linecap:butt;stroke-linejoin:miter;stroke-miterlimit:4;stroke-dasharray:none;stroke-opacity:1"
           d="m 255.8846,448.9336 0.767,2.8354 1.964,1.964 2.8354,0.767 h 195.3077 l 3.2212,0.8713 2.3411,2.3411 0.8713,3.2212 v 82.1825 h -1 v -82.0497 l -0.767,-2.8354 -1.9639,-1.964 -2.8355,-0.767 H 261.3182 l -3.2212,-0.8713 -2.341,-2.3411 -0.8714,-3.2212 V 351 h 1 z" /></g><path
         id="path376"
         style="fill:#3a414a;fill-opacity:1;fill-rule:nonzero;stroke:none"
         d="m 462.6923,1242.685 -4.6353,14.266 h 9.2706 z" /><path
         id="path378"
         style="fill:#3a414a;fill-opacity:1;fill-rule:nonzero;stroke:none"
         d="m 462.6923,1241.067 -5.3235,16.384 h 10.647 z m -3.9471,15.384 3.9471,-12.148 3.9471,12.148 z" /><g
         transform="matrix(1,0,0,-1,0,1800.567)"
         id="g380"><path
           id="path382"
           style="fill:none;stroke:#3a414a;stroke-width:0.05;stroke-linecap:butt;stroke-linejoin:miter;stroke-miterlimit:4;stroke-dasharray:none;stroke-opacity:1"
           d="m 462.6923,559.5 -5.3235,-16.3839 h 10.647 z m -3.9471,-15.3839 3.9471,12.1478 3.9471,-12.1478 z" /></g><path
         id="path384"
         style="fill:#3a414a;fill-opacity:1;fill-rule:nonzero;stroke:none"
         d="m 254.8846,1449.554 h 1 v 0.5128 h -1 z" /><path
         id="path386"
         style="fill:#3a414a;fill-opacity:1;fill-rule:nonzero;stroke:none"
         d="m 255.9096,1449.529 h -1.05 v 0.563 h 1.05 z m -1,0.513 v -0.463 h 0.95 v 0.463 z" /><g
         transform="matrix(1,0,0,-1,0,1800.567)"
         id="g388"><path
           id="path390"
           style="fill:none;stroke:#3a414a;stroke-width:0.05;stroke-linecap:butt;stroke-linejoin:miter;stroke-miterlimit:4;stroke-dasharray:none;stroke-opacity:1"
           d="m 255.9096,351.0378 h -1.05 v -0.5628 h 1.05 z m -1,-0.5128 v 0.4628 h 0.95 v -0.4628 z" /></g><path
         id="path392"
         style="fill:#3a414a;fill-opacity:1;fill-rule:nonzero;stroke:none"
         d="m 670.5,1351.501 -0.8713,-3.222 -2.3411,-2.341 -3.2212,-0.871 H 468.7587 l -2.8354,-0.767 -1.964,-1.964 -0.767,-2.835 v -82.05 h -1 v 82.182 l 0.8713,3.222 2.3411,2.341 3.2212,0.871 h 195.3077 l 2.8354,0.767 1.964,1.964 0.767,2.835 v 97.934 h 1 z" /><g
         transform="matrix(1,0,0,-1,0,1800.567)"
         id="g394"><path
           id="path396"
           style="fill:none;stroke:#3a414a;stroke-width:0.05;stroke-linecap:butt;stroke-linejoin:miter;stroke-miterlimit:4;stroke-dasharray:none;stroke-opacity:1"
           d="m 670.5,449.0664 -0.8713,3.2212 -2.3411,2.3411 -3.2212,0.8713 H 468.7587 l -2.8354,0.767 -1.964,1.964 -0.767,2.8354 v 82.0497 h -1 v -82.1825 l 0.8713,-3.2212 2.3411,-2.3411 3.2212,-0.8713 h 195.3077 l 2.8354,-0.767 1.964,-1.964 0.767,-2.8354 V 351 h 1 z" /></g><path
         id="path398"
         style="fill:#3a414a;fill-opacity:1;fill-rule:nonzero;stroke:none"
         d="m 462.6923,1242.685 -4.6353,14.266 h 9.2706 z" /><path
         id="path400"
         style="fill:#3a414a;fill-opacity:1;fill-rule:nonzero;stroke:none"
         d="m 462.6923,1241.067 -5.3235,16.384 h 10.647 z m -3.9471,15.384 3.9471,-12.148 3.9471,12.148 z" /><g
         transform="matrix(1,0,0,-1,0,1800.567)"
         id="g402"><path
           id="path404"
           style="fill:none;stroke:#3a414a;stroke-width:0.05;stroke-linecap:butt;stroke-linejoin:miter;stroke-miterlimit:4;stroke-dasharray:none;stroke-opacity:1"
           d="m 462.6923,559.5 -5.3235,-16.3839 h 10.647 z m -3.9471,-15.3839 3.9471,12.1478 3.9471,-12.1478 z" /></g><path
         id="path406"
         style="fill:#3a414a;fill-opacity:1;fill-rule:nonzero;stroke:none"
         d="m 669.5,1449.554 h 1 v 0.5128 h -1 z" /><path
         id="path408"
         style="fill:#3a414a;fill-opacity:1;fill-rule:nonzero;stroke:none"
         d="m 670.525,1449.529 h -1.05 v 0.563 h 1.05 z m -1,0.513 v -0.463 h 0.95 v 0.463 z" /><g
         transform="matrix(1,0,0,-1,0,1800.567)"
         id="g410"><path
           id="path412"
           style="fill:none;stroke:#3a414a;stroke-width:0.05;stroke-linecap:butt;stroke-linejoin:miter;stroke-miterlimit:4;stroke-dasharray:none;stroke-opacity:1"
           d="m 670.525,351.0378 h -1.05 v -0.5628 h 1.05 z m -1,-0.5128 v 0.4628 h 0.95 v -0.4628 z" /></g><path
         id="path414"
         style="fill:#3a414a;fill-opacity:1;fill-rule:nonzero;stroke:none"
         d="m 764.7308,837.4508 h -1 V 1089.9 h 1 z M 1008.231,1135.067 H 770.2972 l -2.8355,-0.767 -1.9639,-1.964 -0.767,-2.835 v -18.267 h -1 v 18.399 l 0.8713,3.222 2.3411,2.341 3.2211,0.871 h 238.0667 z" /><g
         transform="matrix(1,0,0,-1,0,1800.567)"
         id="g416"><path
           id="path418"
           style="fill:none;stroke:#3a414a;stroke-width:0.05;stroke-linecap:butt;stroke-linejoin:miter;stroke-miterlimit:4;stroke-dasharray:none;stroke-opacity:1"
           d="m 764.7308,963.1161 h -1 V 710.6667 h 1 z M 1008.231,665.5 H 770.2972 l -2.8355,0.767 -1.9639,1.964 -0.767,2.8354 v 18.2669 h -1 v -18.3997 l 0.8713,-3.2212 2.3411,-2.3411 3.2211,-0.8713 h 238.0667 z" /></g><path
         id="path420"
         style="fill:#3a414a;fill-opacity:1;fill-rule:nonzero;stroke:none"
         d="m 1008.218,1135.067 h 0.5128 v 1 h -0.5128 z" /><path
         id="path422"
         style="fill:#3a414a;fill-opacity:1;fill-rule:nonzero;stroke:none"
         d="m 1008.756,1135.042 h -0.563 v 1.05 h 0.563 z m -0.513,1 v -0.95 h 0.463 v 0.95 z" /><g
         transform="matrix(1,0,0,-1,0,1800.567)"
         id="g424"><path
           id="path426"
           style="fill:none;stroke:#3a414a;stroke-width:0.05;stroke-linecap:butt;stroke-linejoin:miter;stroke-miterlimit:4;stroke-dasharray:none;stroke-opacity:1"
           d="m 1008.756,665.525 h -0.563 v -1.05 h 0.563 z m -0.513,-1 v 0.95 h 0.463 v -0.95 z" /></g><path
         id="path428"
         style="fill:#3a414a;fill-opacity:1;fill-rule:nonzero;stroke:none"
         d="m 764.2308,822.685 -4.6353,14.2658 h 9.2706 z" /><path
         id="path430"
         style="fill:#3a414a;fill-opacity:1;fill-rule:nonzero;stroke:none"
         d="m 764.2308,821.067 -5.3235,16.3838 h 10.647 z m -3.9471,15.3838 3.9471,-12.1478 3.9471,12.1478 z" /><g
         transform="matrix(1,0,0,-1,0,1800.567)"
         id="g432"><path
           id="path434"
           style="fill:none;stroke:#3a414a;stroke-width:0.05;stroke-linecap:butt;stroke-linejoin:miter;stroke-miterlimit:4;stroke-dasharray:none;stroke-opacity:1"
           d="m 764.2308,979.5 -5.3235,-16.3839 h 10.647 z m -3.9471,-15.3839 3.9471,12.1478 3.9471,-12.1478 z" /></g></g><g
       id="g436"><g
         clip-path="url(#clipPath442)"
         id="g438"><g
           transform="matrix(1,0,0,-1,739.3172,1109.406)"
           id="g444"><text
             id="text448"
             style="font-variant:normal;font-weight:normal;font-size:17.77778053px;font-family:Helvetica;-inkscape-font-specification:Helvetica;writing-mode:lr-tb;fill:#000000;fill-opacity:0;fill-rule:nonzero;stroke:none"
             transform="translate(0,16.3559)"><tspan
               id="tspan446"
               y="0"
               x="0 13.827558 23.715559 33.603561 39.52356">Query</tspan></text>
</g></g></g><g
       id="g450"><path
         id="path452"
         style="fill:#333333;fill-opacity:1;fill-rule:nonzero;stroke:none"
         d="m 745.49,1109.406 c 3.9506,0 6.1729,-2.222 6.1729,-6.222 0,-3.457 -1.6297,-5.481 -4.5432,-6.123 0.2963,-1.383 1.679,-1.877 3.358,-1.531 l -0.0494,-1.778 c -3.1111,-0.839 -5.4815,0.543 -5.9259,3.161 -3.4074,0.395 -5.1852,2.568 -5.1852,6.271 0,4 2.1728,6.222 6.1728,6.222 z m -0.0494,-10.567 c 2.5679,0 3.605,1.728 3.605,4.345 0,2.469 -1.0371,4.247 -3.5556,4.247 -2.5679,0 -3.6049,-1.728 -3.6049,-4.247 0,-2.518 1.0864,-4.345 3.5555,-4.345 m 11.1605,-2.025 c -4.2963,-0.05 -2.8642,5.58 -3.1111,9.58 h 2.4692 c 0.3456,-2.815 -1.1358,-7.407 1.6296,-7.753 2.963,0.247 1.7284,4.79 1.9753,7.753 h 2.4691 l 0.0494,-9.383 h -2.321 c -0.0987,0.593 0.0494,1.383 -0.1481,1.877 -0.5926,-1.235 -1.3827,-2.074 -3.0124,-2.074 m 15.7531,2.568 c -0.6419,-1.482 -1.8271,-2.618 -4.0494,-2.568 -2.9629,0.099 -4.395,1.827 -4.395,4.938 0,3.111 1.4815,4.84 4.4444,4.84 3.0618,0 4.0988,-2.223 4.1482,-5.334 h -6.0247 c 0,-1.531 0.395,-2.716 1.9259,-2.765 0.8889,0 1.4815,0.346 1.679,1.086 z m -2.2222,3.407 c 0.2469,2.272 -2.8148,3.111 -3.4568,1.037 -0.0988,-0.296 -0.1975,-0.642 -0.1975,-1.037 h 3.6543 m 9.6296,1.63 c -1.9259,0.592 -2.9629,-0.642 -2.9629,-2.815 v -4.593 h -2.4692 l -0.0493,9.383 h 2.3209 c 0.0988,-0.642 -0.0493,-1.432 0.1482,-1.975 0.2963,1.383 1.3333,2.617 3.0123,2.024 v -2.024 m 6.321,-7.901 c -0.7407,-2.124 -2.1234,-3.754 -5.1358,-3.062 v 1.728 c 1.7284,-0.395 2.6173,0.543 2.9136,1.926 l -3.7037,9.284 h 2.5679 l 2.3704,-7.309 c 0.5926,2.568 1.3827,4.939 2.1728,7.309 h 2.5185" /><g
         transform="matrix(1,0,0,-1,0,1800.567)"
         id="g454"><path
           id="path456"
           style="fill:none;stroke:#3a414a;stroke-width:1;stroke-linecap:butt;stroke-linejoin:miter;stroke-miterlimit:4;stroke-dasharray:none;stroke-opacity:1"
           d="M 1084.615,366.8839 V 559" /></g><path
         id="path458"
         style="fill:#3a414a;fill-opacity:1;fill-rule:nonzero;stroke:none"
         d="m 1084.615,1448.449 4.636,-14.266 h -9.271 z" /><g
         transform="matrix(1,0,0,-1,0,1800.567)"
         id="g460"><path
           id="path462"
           style="fill:none;stroke:#3a414a;stroke-width:1;stroke-linecap:butt;stroke-linejoin:miter;stroke-miterlimit:4;stroke-dasharray:none;stroke-opacity:1"
           d="m 1084.615,352.118 4.636,14.2659 h -9.271 z" /></g><path
         id="path464"
         style="fill:#3a414a;fill-opacity:1;fill-rule:nonzero;stroke:none"
         d="m 1084.115,1241.067 h 1 v 0.5128 h -1 z" /><g
         transform="matrix(1,0,0,-1,0,1800.567)"
         id="g466"><path
           id="path468"
           style="fill:none;stroke:#3a414a;stroke-width:0.05;stroke-linecap:butt;stroke-linejoin:miter;stroke-miterlimit:4;stroke-dasharray:none;stroke-opacity:1"
           d="m 1084.115,558.9872 h 1 V 559.5 h -1 z" /></g><path
         id="path470"
         style="fill:#3a414a;fill-opacity:1;fill-rule:nonzero;stroke:none"
         d="m 463.1923,837.4508 h -1 v 77.4495 h 1 z m 0,98.7828 h -1 v 93.3334 h 1 z" /><g
         transform="matrix(1,0,0,-1,0,1800.567)"
         id="g472"><path
           id="path474"
           style="fill:none;stroke:#3a414a;stroke-width:0.05;stroke-linecap:butt;stroke-linejoin:miter;stroke-miterlimit:4;stroke-dasharray:none;stroke-opacity:1"
           d="m 463.1923,963.1161 h -1 v -77.4494 h 1 z m 0,-98.7828 h -1 V 771 h 1 z" /></g><path
         id="path476"
         style="fill:#3a414a;fill-opacity:1;fill-rule:nonzero;stroke:none"
         d="m 462.6923,822.685 -4.6353,14.2658 h 9.2706 z" /><path
         id="path478"
         style="fill:#3a414a;fill-opacity:1;fill-rule:nonzero;stroke:none"
         d="m 462.6923,821.067 -5.3235,16.3838 h 10.647 z m -3.9471,15.3838 3.9471,-12.1478 3.9471,12.1478 z" /><g
         transform="matrix(1,0,0,-1,0,1800.567)"
         id="g480"><path
           id="path482"
           style="fill:none;stroke:#3a414a;stroke-width:0.05;stroke-linecap:butt;stroke-linejoin:miter;stroke-miterlimit:4;stroke-dasharray:none;stroke-opacity:1"
           d="m 462.6923,979.5 -5.3235,-16.3839 h 10.647 z m -3.9471,-15.3839 3.9471,12.1478 3.9471,-12.1478 z" /></g><path
         id="path484"
         style="fill:#3a414a;fill-opacity:1;fill-rule:nonzero;stroke:none"
         d="m 462.1923,1029.554 h 1 v 0.5128 h -1 z" /><path
         id="path486"
         style="fill:#3a414a;fill-opacity:1;fill-rule:nonzero;stroke:none"
         d="m 463.2173,1029.529 h -1.05 v 0.563 h 1.05 z m -1,0.513 v -0.463 h 0.95 v 0.463 z" /><g
         transform="matrix(1,0,0,-1,0,1800.567)"
         id="g488"><path
           id="path490"
           style="fill:none;stroke:#3a414a;stroke-width:0.05;stroke-linecap:butt;stroke-linejoin:miter;stroke-miterlimit:4;stroke-dasharray:none;stroke-opacity:1"
           d="m 463.2173,771.0378 h -1.05 v -0.5628 h 1.05 z m -1,-0.5128 v 0.4628 h 0.95 v -0.4628 z" /></g></g><g
       id="g492"><g
         clip-path="url(#clipPath498)"
         id="g494"><g
           transform="matrix(1,0,0,-1,442.717,934.2583)"
           id="g500"><text
             id="text504"
             style="font-variant:normal;font-weight:normal;font-size:17.77778053px;font-family:Helvetica;-inkscape-font-specification:Helvetica;writing-mode:lr-tb;fill:#000000;fill-opacity:0;fill-rule:nonzero;stroke:none"
             transform="translate(0,16.3559)"><tspan
               id="tspan502"
               y="0"
               x="0 9.8880014 19.776003 29.664003">Logs</tspan></text>
</g></g></g><g
       id="g506"><path
         id="path508"
         style="fill:#333333;fill-opacity:1;fill-rule:nonzero;stroke:none"
         d="m 442.717,922.0114 v 12.2469 h 2.5679 v -10.2716 h 6.5679 v -1.9753 h -9.1358 m 15.0617,9.5802 c 3.1605,0 4.7408,-1.7777 4.7408,-4.8888 0,-3.1605 -1.7284,-4.8889 -4.7902,-4.8889 -3.0123,0 -4.6913,1.7777 -4.6913,4.8889 0,3.0617 1.679,4.8888 4.7407,4.8888 z m -0.0494,-8.0987 c 1.7284,0 2.2223,1.3827 2.2223,3.2099 0,1.9753 -0.4939,3.2098 -2.1235,3.2098 -1.679,0 -2.2222,-1.2839 -2.2222,-3.2098 0,-1.7778 0.4938,-3.2099 2.1234,-3.2099 m 15.0618,-1.1852 c 0.5432,-4.3457 -5.926,-5.2346 -8.0988,-2.5679 -0.1975,0.2963 -0.2963,0.642 -0.3951,1.037 l 2.4198,0.2963 c 0.1481,-0.7901 0.7901,-1.1852 1.679,-1.2345 1.9753,0 2.0741,1.8271 1.9753,3.9012 -0.5432,-1.0864 -1.4815,-1.7284 -3.0123,-1.7284 -2.6173,0 -3.4568,2.1235 -3.4568,4.7901 0,2.7655 0.8889,4.7408 3.6049,4.7901 1.4815,0 2.2716,-0.6913 2.9136,-1.679 l 0.0988,1.4815 h 2.321 z m -4.4445,1.4321 c 1.5803,0 2.0247,1.3333 2.0247,3.1111 0,1.7284 -0.4444,3.0617 -1.9753,3.0617 -1.5802,0 -1.9259,-1.4321 -1.9753,-3.1111 0,-1.7778 0.4444,-3.0617 1.9259,-3.0617 m 12.3951,5.0864 c 0.0494,1.4321 -3.4568,1.679 -3.5062,0.1975 0.7408,-2.2716 5.8272,-0.3456 5.8766,-4.2469 0.0493,-4.0987 -8.0988,-3.7531 -8.4939,-0.4444 l 2.1235,0.3457 c 0.1975,-0.9383 0.9876,-1.2346 2.1728,-1.2346 1.6297,-0.3951 2.8148,1.4815 1.1852,2.0247 -2.1234,0.6913 -5.037,0.5432 -5.1358,3.2592 -0.0988,3.9507 7.605,3.6544 7.9506,0.3457" /><path
         id="path510"
         style="fill:#3a414a;fill-opacity:1;fill-rule:nonzero;stroke:none"
         d="m 764.7308,452.4508 h -1 v 41.0096 h 1 z m 0,62.343 h -1 v 78.8893 h 1 z" /><g
         transform="matrix(1,0,0,-1,0,1800.567)"
         id="g512"><path
           id="path514"
           style="fill:none;stroke:#3a414a;stroke-width:0.05;stroke-linecap:butt;stroke-linejoin:miter;stroke-miterlimit:4;stroke-dasharray:none;stroke-opacity:1"
           d="m 764.7308,1348.116 h -1 v -41.009 h 1 z m 0,-62.343 h -1 v -78.889 h 1 z" /></g><path
         id="path516"
         style="fill:#3a414a;fill-opacity:1;fill-rule:nonzero;stroke:none"
         d="m 764.2308,437.685 -4.6353,14.2658 h 9.2706 z" /><path
         id="path518"
         style="fill:#3a414a;fill-opacity:1;fill-rule:nonzero;stroke:none"
         d="m 764.2308,436.067 -5.3235,16.3838 h 10.647 z m -3.9471,15.3838 3.9471,-12.1478 3.9471,12.1478 z" /><g
         transform="matrix(1,0,0,-1,0,1800.567)"
         id="g520"><path
           id="path522"
           style="fill:none;stroke:#3a414a;stroke-width:0.05;stroke-linecap:butt;stroke-linejoin:miter;stroke-miterlimit:4;stroke-dasharray:none;stroke-opacity:1"
           d="m 764.2308,1364.5 -5.3235,-16.384 h 10.647 z m -3.9471,-15.384 3.9471,12.148 3.9471,-12.148 z" /></g><path
         id="path524"
         style="fill:#3a414a;fill-opacity:1;fill-rule:nonzero;stroke:none"
         d="m 768.8661,594.1831 h -9.2706 l 4.6353,14.2658 z" /><path
         id="path526"
         style="fill:#3a414a;fill-opacity:1;fill-rule:nonzero;stroke:none"
         d="m 769.5543,593.6831 h -10.647 l 5.3235,16.3838 z m -9.2706,1 h 7.8942 l -3.9471,12.1478 z" /><g
         transform="matrix(1,0,0,-1,0,1800.567)"
         id="g528"><path
           id="path530"
           style="fill:none;stroke:#3a414a;stroke-width:0.05;stroke-linecap:butt;stroke-linejoin:miter;stroke-miterlimit:4;stroke-dasharray:none;stroke-opacity:1"
           d="m 769.5543,1206.884 h -10.647 l 5.3235,-16.384 z m -9.2706,-1 h 7.8942 l -3.9471,-12.148 z" /></g></g><g
       id="g532"><g
         clip-path="url(#clipPath538)"
         id="g534"><g
           transform="matrix(1,0,0,-1,744.2555,512.8185)"
           id="g540"><text
             id="text544"
             style="font-variant:normal;font-weight:normal;font-size:17.77778053px;font-family:Helvetica;-inkscape-font-specification:Helvetica;writing-mode:lr-tb;fill:#000000;fill-opacity:0;fill-rule:nonzero;stroke:none"
             transform="translate(0,16.3559)"><tspan
               id="tspan542"
               y="0"
               x="0 9.8880014 19.776003 29.664003">Logs</tspan></text>
</g></g></g><g
       id="g546"><path
         id="path548"
         style="fill:#333333;fill-opacity:1;fill-rule:nonzero;stroke:none"
         d="m 744.2555,500.5716 v 12.2469 h 2.5679 v -10.2716 h 6.5679 v -1.9753 h -9.1358 m 15.0617,9.5802 c 3.1605,0 4.7407,-1.7778 4.7407,-4.8889 0,-3.1605 -1.7284,-4.8889 -4.7901,-4.8889 -3.0123,0 -4.6914,1.7778 -4.6914,4.8889 0,3.0617 1.6791,4.8889 4.7408,4.8889 z m -0.0494,-8.0988 c 1.7284,0 2.2222,1.3828 2.2222,3.2099 0,1.9753 -0.4938,3.2099 -2.1234,3.2099 -1.679,0 -2.2223,-1.284 -2.2223,-3.2099 0,-1.7778 0.4939,-3.2099 2.1235,-3.2099 m 15.0617,-1.1851 c 0.5432,-4.3457 -5.9259,-5.2346 -8.0987,-2.568 -0.1976,0.2963 -0.2963,0.642 -0.3951,1.0371 l 2.4198,0.2963 c 0.1481,-0.7901 0.7901,-1.1852 1.679,-1.2346 1.9753,0 2.074,1.8272 1.9753,3.9012 -0.5432,-1.0864 -1.4815,-1.7283 -3.0124,-1.7283 -2.6172,0 -3.4568,2.1234 -3.4568,4.7901 0,2.7654 0.8889,4.7407 3.605,4.7901 1.4815,0 2.2716,-0.6914 2.9136,-1.679 l 0.0987,1.4815 h 2.321 z m -4.4444,1.432 c 1.5802,0 2.0247,1.3334 2.0247,3.1112 0,1.7284 -0.4445,3.0617 -1.9753,3.0617 -1.5803,0 -1.926,-1.4321 -1.9753,-3.1111 0,-1.7778 0.4444,-3.0618 1.9259,-3.0618 m 12.3951,5.0865 c 0.0493,1.4321 -3.4568,1.679 -3.5062,0.1975 0.7407,-2.2716 5.8271,-0.3457 5.8765,-4.2469 0.0494,-4.0988 -8.0987,-3.7531 -8.4938,-0.4445 l 2.1235,0.3457 c 0.1975,-0.9383 0.9876,-1.2345 2.1728,-1.2345 1.6296,-0.3951 2.8148,1.4814 1.1852,2.0246 -2.1235,0.6914 -5.0371,0.5433 -5.1358,3.2593 -0.0988,3.9506 7.6049,3.6543 7.9506,0.3457" /><path
         id="path550"
         style="fill:#ffffff;fill-opacity:1;fill-rule:nonzero;stroke:none"
         d="m 952.6923,134.567 c 0,-7.732 -21.0943,-14 -47.1154,-14 -26.0211,0 -47.1154,6.268 -47.1154,14 v 112 c 0,7.7319 21.0943,14 47.1154,14 26.0211,0 47.1154,-6.2681 47.1154,-14 z" /><g
         transform="matrix(1,0,0,-1,858.4615,260.567)"
         id="g552"><path
           id="path554"
           style="fill:none;stroke:#3a414a;stroke-width:1;stroke-linecap:butt;stroke-linejoin:miter;stroke-miterlimit:4;stroke-dasharray:none;stroke-opacity:1"
           d="m 94.23077,126 c 0,7.732 -21.09428,14 -47.11539,14 C 21.09428,140 0,133.732 0,126 V 14 C 0,6.268014 21.09428,0 47.11538,0 73.13649,0 94.23077,6.268014 94.23077,14 Z" /></g><g
         transform="matrix(1,0,0,-1,858.4615,260.567)"
         id="g556"><path
           id="path558"
           style="fill:none;stroke:#3a414a;stroke-width:1;stroke-linecap:butt;stroke-linejoin:miter;stroke-miterlimit:4;stroke-dasharray:none;stroke-opacity:1"
           d="m 94.23077,14 c 0,7.73199 -21.09428,14 -47.11539,14 C 21.09428,28 0,21.73199 0,14" /></g></g><g
       id="g560"><g
         clip-path="url(#clipPath566)"
         id="g562"><g
           transform="matrix(1,0,0,-1,889.2949,199.5978)"
           id="g568"><text
             id="text572"
             style="font-variant:normal;font-weight:normal;font-size:22.22221947px;font-family:Helvetica;-inkscape-font-specification:Helvetica;writing-mode:lr-tb;fill:#000000;fill-opacity:0;fill-rule:nonzero;stroke:none"
             transform="translate(0,20.44488)"><tspan
               id="tspan570"
               y="0"
               x="0 12.359999 24.719997">Log</tspan></text>
</g></g></g><g
       id="g574"><path
         id="path576"
         style="fill:#3a414a;fill-opacity:1;fill-rule:nonzero;stroke:none"
         d="m 889.2949,184.2892 v 15.3086 h 2.037 v -13.642 h 7.7161 v -1.6666 h -9.7531 m 16.6666,11.9753 c 3.8272,0.0617 5.247,-2.284 5.247,-6.1111 0.0617,-3.8889 -1.6667,-6.1111 -5.3087,-6.1111 -3.642,0 -5.1234,2.4074 -5.1852,6.1111 0,4.074 1.7284,6.1111 5.2469,6.1111 z m -0.0617,-10.7408 c 2.7161,-0.0617 3.2716,1.9136 3.2716,4.6297 0,2.6543 -0.4938,4.6296 -3.1481,4.6296 -2.6544,0 -3.2716,-1.9753 -3.2716,-4.6296 0,-2.6543 0.6172,-4.5679 3.1481,-4.6297 m 17.1605,10.4939 c -0.6173,-7.7161 2.5309,-18.0864 -6.7901,-16.1111 -1.4198,0.3703 -2.3457,1.2345 -2.7161,2.6543 l 1.9753,0.3086 c 0.926,-2.9012 6.1729,-1.9753 5.4939,1.7284 v 1.8519 c -0.679,-1.2963 -1.7902,-2.2223 -3.7655,-2.2223 -3.3333,0 -4.1975,2.5309 -4.1975,5.926 0,3.4568 0.9877,5.9876 4.3827,6.0494 1.7901,0.0617 2.963,-0.9877 3.642,-2.1605 0.0617,0.6172 0,1.4197 0.1235,1.9753 z m -5.1235,-10.3704 c 2.2223,0 3.0865,1.9753 3.0865,4.5062 0,2.5926 -0.8642,4.6296 -3.0865,4.6296 -2.4074,0 -2.8395,-2.0988 -2.8395,-4.6296 0,-2.5309 0.3704,-4.5062 2.8395,-4.5062" /></g><g
       id="g578"><g
         clip-path="url(#clipPath584)"
         id="g580"><g
           transform="matrix(1,0,0,-1,866.4862,172.0052)"
           id="g586"><text
             id="text590"
             style="font-variant:normal;font-weight:normal;font-size:22.22221947px;font-family:Helvetica;-inkscape-font-specification:Helvetica;writing-mode:lr-tb;fill:#000000;fill-opacity:0;fill-rule:nonzero;stroke:none"
             transform="translate(0,20.44488)"><tspan
               id="tspan588"
               y="0"
               x="0 11.11111 17.284443 29.644442 37.044441 49.404438 61.764439 74.124435">storage.</tspan></text>
</g></g></g><g
       id="g592"><path
         id="path594"
         style="fill:#3a414a;fill-opacity:1;fill-rule:nonzero;stroke:none"
         d="m 874.2023,166.4497 c -0.1852,2.0987 -5.3087,2.3457 -5.3704,0 0.9259,-3.2716 7.0988,-0.7408 7.3457,-5.5556 0.2469,-4.8148 -9.2593,-4.5679 -9.6914,-0.4938 l 1.7284,0.3086 c 0.2469,-2.2222 5.9877,-2.7777 6.0494,0 -0.6173,3.4568 -6.9753,0.926 -7.2839,5.5556 -0.247,3.5185 5.0617,3.8889 7.5308,2.5926 0.7408,-0.4321 1.2963,-1.1729 1.4815,-2.1605 m 4.6296,-6.1729 c -0.1234,-1.4814 1.1111,-1.7901 2.3457,-1.358 v -1.4815 c -2.037,-0.6172 -4.321,-0.3086 -4.321,2.4074 v 7.8396 h -1.358 v 1.4197 h 1.4815 l 0.5555,2.6543 h 1.2963 v -2.6543 h 2.1605 v -1.4197 h -2.1605 v -7.4075 m 8.7037,9.0741 c 3.8272,0.0617 5.2469,-2.2839 5.2469,-6.1111 0.0618,-3.8889 -1.6666,-6.1111 -5.3086,-6.1111 -3.642,0 -5.1234,2.4074 -5.1852,6.1111 0,4.0741 1.7284,6.1111 5.2469,6.1111 z m -0.0617,-10.7407 c 2.7161,-0.0617 3.2716,1.9136 3.2716,4.6296 0,2.6543 -0.4938,4.6296 -3.1481,4.6296 -2.6544,0 -3.2716,-1.9753 -3.2716,-4.6296 0,-2.6543 0.6172,-4.5679 3.1481,-4.6296 m 13.2716,8.8271 c -4.8148,0.9877 -3.2716,-5.6172 -3.5185,-10.0617 h -1.9753 l -0.0617,11.7284 h 1.8518 c 0.0617,-0.7407 -0.0617,-1.7901 0.1235,-2.4074 0.3703,1.6667 1.4197,3.0247 3.5802,2.5309 v -1.7902 m 9.0124,-7.8395 c -0.926,-1.2963 -1.9136,-2.5308 -4.1976,-2.4691 -2.2222,0.0617 -3.5802,1.2963 -3.5802,3.5185 -0.0617,3.9506 3.8889,3.8889 7.716,3.8889 0.1852,2.1605 -0.5555,3.3333 -2.5308,3.3333 -1.4815,-0.0617 -2.5309,-0.4321 -2.5926,-1.9135 l -2.0371,0.1851 c 0.3087,2.284 2.0371,3.2099 4.6914,3.2099 2.7778,0 4.4444,-1.2345 4.4444,-3.9506 v -5.0617 c -0.0617,-1.2346 0.4321,-1.9753 1.7284,-1.6667 v -1.2346 c -1.9135,-0.5555 -3.7654,0.1235 -3.6419,2.1605 z m -5.7408,1.0494 c 0,-1.2346 0.7408,-2.037 1.9753,-2.037 2.5309,0.1852 3.8889,1.7901 3.7037,4.5679 -2.6543,-0.1235 -5.679,0.3086 -5.679,-2.5309 m 20.3087,8.4568 c -0.6173,-7.716 2.5308,-18.0864 -6.7902,-16.1111 -1.4197,0.3704 -2.3456,1.2346 -2.716,2.6543 l 1.9753,0.3087 c 0.9259,-2.9013 6.1728,-1.9754 5.4938,1.7284 v 1.8518 c -0.679,-1.2963 -1.7901,-2.2222 -3.7654,-2.2222 -3.3333,0 -4.1975,2.5308 -4.1975,5.9259 0,3.4568 0.9876,5.9877 4.3827,6.0494 1.7901,0.0617 2.9629,-0.9877 3.642,-2.1605 0.0617,0.6173 0,1.4198 0.1234,1.9753 z m -5.1235,-10.3704 c 2.2222,0 3.0864,1.9753 3.0864,4.5062 0,2.5926 -0.8642,4.6296 -3.0864,4.6296 -2.4074,0 -2.8395,-2.0987 -2.8395,-4.6296 0,-2.5309 0.3704,-4.5062 2.8395,-4.5062 m 12.7161,10.6173 c 3.8888,0 5.3086,-2.5926 5.1851,-6.5432 h -8.3333 c 0,-2.4691 0.8642,-4.1358 3.2716,-4.1975 1.6049,-0.0617 2.6543,0.7407 3.0247,1.7901 l 1.7284,-0.4938 c -0.679,-1.7284 -2.284,-2.7778 -4.7531,-2.7778 -3.5802,0 -5.4321,2.2839 -5.3704,6.1728 0.0618,3.7655 1.605,6.0494 5.247,6.0494 z m 3.2098,-5 c 0.3704,3.7037 -4.6913,4.7531 -5.9876,1.7284 -0.1852,-0.4321 -0.3704,-1.0494 -0.3704,-1.7284 h 6.358 m 5,-6.9753 v 2.3457 h 2.0988 v -2.3457 h -2.0988" /><path
         id="path596"
         style="fill:#3a414a;fill-opacity:1;fill-rule:nonzero;stroke:none"
         d="m 1085.115,721.5005 -0.871,-3.2211 -2.341,-2.3411 -3.221,-0.8713 H 840.6154 v 1 h 237.9336 l 2.835,0.767 1.964,1.9639 0.767,2.8355 v 18.2669 h 1 z m 0,39.7331 h -1 v 252.4494 h 1 z" /><g
         transform="matrix(1,0,0,-1,0,1800.567)"
         id="g598"><path
           id="path600"
           style="fill:none;stroke:#3a414a;stroke-width:0.05;stroke-linecap:butt;stroke-linejoin:miter;stroke-miterlimit:4;stroke-dasharray:none;stroke-opacity:1"
           d="m 1085.115,1079.066 -0.871,3.222 -2.341,2.341 -3.221,0.871 H 840.6154 v -1 h 237.9336 l 2.835,-0.767 1.964,-1.964 0.767,-2.835 v -18.267 h 1 z m 0,-39.733 h -1 V 786.8839 h 1 z" /></g><path
         id="path602"
         style="fill:#3a414a;fill-opacity:1;fill-rule:nonzero;stroke:none"
         d="m 840.1154,715.067 h 0.51282 v 1 h -0.51282 z" /><path
         id="path604"
         style="fill:#3a414a;fill-opacity:1;fill-rule:nonzero;stroke:none"
         d="m 840.6532,715.042 h -0.5628 v 1.05 h 0.5628 z m -0.5128,1 v -0.95 h 0.4628 v 0.95 z" /><g
         transform="matrix(1,0,0,-1,0,1800.567)"
         id="g606"><path
           id="path608"
           style="fill:none;stroke:#3a414a;stroke-width:0.05;stroke-linecap:butt;stroke-linejoin:miter;stroke-miterlimit:4;stroke-dasharray:none;stroke-opacity:1"
           d="m 840.6532,1085.525 h -0.5628 v -1.05 h 0.5628 z m -0.5128,-1 v 0.95 h 0.4628 v -0.95 z" /></g><path
         id="path610"
         style="fill:#3a414a;fill-opacity:1;fill-rule:nonzero;stroke:none"
         d="m 1089.251,1014.183 h -9.271 l 4.635,14.266 z" /><path
         id="path612"
         style="fill:#3a414a;fill-opacity:1;fill-rule:nonzero;stroke:none"
         d="m 1089.939,1013.683 h -10.647 l 5.323,16.384 z m -9.271,1 h 7.894 l -3.947,12.148 z" /><g
         transform="matrix(1,0,0,-1,0,1800.567)"
         id="g614"><path
           id="path616"
           style="fill:none;stroke:#3a414a;stroke-width:0.05;stroke-linecap:butt;stroke-linejoin:miter;stroke-miterlimit:4;stroke-dasharray:none;stroke-opacity:1"
           d="m 1089.939,786.8839 h -10.647 l 5.323,-16.3839 z m -9.271,-1 h 7.894 l -3.947,-12.1478 z" /></g></g><g
       id="g618"><g
         clip-path="url(#clipPath624)"
         id="g620"><g
           transform="matrix(1,0,0,-1,1064.64,759.2583)"
           id="g626"><text
             id="text630"
             style="font-variant:normal;font-weight:normal;font-size:17.77778053px;font-family:Helvetica;-inkscape-font-specification:Helvetica;writing-mode:lr-tb;fill:#000000;fill-opacity:0;fill-rule:nonzero;stroke:none"
             transform="translate(0,16.3559)"><tspan
               id="tspan628"
               y="0"
               x="0 9.8880014 19.776003 29.664003">Logs</tspan></text>
</g></g></g><g
       id="g632"><path
         id="path634"
         style="fill:#333333;fill-opacity:1;fill-rule:nonzero;stroke:none"
         d="m 1064.64,747.0114 v 12.2469 h 2.568 v -10.2716 h 6.568 v -1.9753 h -9.136 m 15.062,9.5802 c 3.16,0 4.741,-1.7777 4.741,-4.8888 0,-3.1605 -1.729,-4.8889 -4.791,-4.8889 -3.012,0 -4.691,1.7777 -4.691,4.8889 0,3.0617 1.679,4.8888 4.741,4.8888 z m -0.05,-8.0987 c 1.729,0 2.223,1.3827 2.223,3.2099 0,1.9753 -0.494,3.2098 -2.124,3.2098 -1.679,0 -2.222,-1.2839 -2.222,-3.2098 0,-1.7778 0.494,-3.2099 2.123,-3.2099 m 15.062,-1.1852 c 0.543,-4.3457 -5.926,-5.2346 -8.099,-2.5679 -0.197,0.2963 -0.296,0.642 -0.395,1.037 l 2.42,0.2963 c 0.148,-0.7901 0.79,-1.1852 1.679,-1.2345 1.975,0 2.074,1.8271 1.975,3.9012 -0.543,-1.0864 -1.481,-1.7284 -3.012,-1.7284 -2.617,0 -3.457,2.1235 -3.457,4.7901 0,2.7655 0.889,4.7408 3.605,4.7901 1.482,0 2.272,-0.6913 2.914,-1.679 l 0.099,1.4815 h 2.321 z m -4.444,1.4321 c 1.58,0 2.024,1.3333 2.024,3.1111 0,1.7284 -0.444,3.0617 -1.975,3.0617 -1.58,0 -1.926,-1.4321 -1.975,-3.1111 0,-1.7778 0.444,-3.0617 1.926,-3.0617 m 12.395,5.0864 c 0.049,1.4321 -3.457,1.679 -3.506,0.1975 0.74,-2.2716 5.827,-0.3456 5.876,-4.2469 0.05,-4.0987 -8.099,-3.7531 -8.494,-0.4444 l 2.124,0.3457 c 0.197,-0.9383 0.987,-1.2346 2.173,-1.2346 1.629,-0.3951 2.814,1.4815 1.185,2.0247 -2.124,0.6913 -5.037,0.5432 -5.136,3.2592 -0.099,3.9507 7.605,3.6544 7.951,0.3457" /></g><g
       id="g636"><g
         clip-path="url(#clipPath642)"
         id="g638"><g
           transform="matrix(1,0,0,-1,289.2246,588.9003)"
           id="g644"><text
             id="text648"
             style="font-variant:normal;font-weight:normal;font-size:22.22221947px;font-family:Helvetica;-inkscape-font-specification:Helvetica;writing-mode:lr-tb;fill:#000000;fill-opacity:0;fill-rule:nonzero;stroke:none"
             transform="translate(0,20.44488)"><tspan
               id="tspan646"
               y="0"
               x="0 12.359999 24.719997 35.831108">Loki</tspan></text>
</g></g></g><g
       id="g650"><path
         id="path652"
         style="fill:#3a414a;fill-opacity:1;fill-rule:nonzero;stroke:none"
         d="m 289.2246,572.7892 v 15.3086 h 2.037 v -13.642 h 7.7161 v -1.6666 h -9.7531 m 16.6667,11.9753 c 3.8271,0.0617 5.2469,-2.284 5.2469,-6.1111 0.0617,-3.8889 -1.6667,-6.1111 -5.3087,-6.1111 -3.6419,0 -5.1234,2.4074 -5.1852,6.1111 0,4.074 1.7284,6.1111 5.247,6.1111 z m -0.0618,-10.7408 c 2.7161,-0.0617 3.2716,1.9136 3.2716,4.6297 0,2.6543 -0.4938,4.6296 -3.1481,4.6296 -2.6543,0 -3.2716,-1.9753 -3.2716,-4.6296 0,-2.6543 0.6173,-4.5679 3.1481,-4.6297 m 15.0618,-1.2345 -3.9507,5.3703 -1.4197,-1.1728 v -4.1975 h -1.9753 v 16.1111 h 1.9753 v -10.0617 l 5.1234,5.679 h 2.284 l -4.7531,-5.0618 5.0617,-6.6666 h -2.3456 m 3.7654,14.2592 v 1.8519 h 1.9753 v -1.8519 z m 0,-14.2592 v 11.7284 h 1.9753 v -11.7284 h -1.9753" /></g><g
       id="g654"><g
         clip-path="url(#clipPath660)"
         id="g656"><g
           transform="matrix(1,0,0,-1,334.5332,588.9003)"
           id="g662"><text
             id="text666"
             style="font-variant:normal;font-weight:normal;font-size:22.22221947px;font-family:Helvetica;-inkscape-font-specification:Helvetica;writing-mode:lr-tb;fill:#000000;fill-opacity:0;fill-rule:nonzero;stroke:none"
             transform="translate(0,20.44488)"><tspan
               id="tspan664"
               y="0"
               x="0 11.11111 16.048887 20.986664 33.346664 45.706661">client</tspan></text>
</g></g></g><g
       id="g668"><path
         id="path670"
         style="fill:#3a414a;fill-opacity:1;fill-rule:nonzero;stroke:none"
         d="m 340.1505,583.2213 c -2.4691,0 -2.9629,-2.0371 -2.9629,-4.5062 0,-2.4691 0.5555,-4.6296 2.9629,-4.6296 1.4815,0 2.5309,0.8642 2.6543,2.3457 l 1.9754,-0.1235 c -0.3704,-2.284 -1.9136,-3.7654 -4.5679,-3.7654 -3.642,0 -4.6914,2.5308 -5.0618,6.1111 -0.6173,5.7407 6.2346,8.0864 9.0741,3.9506 0.2469,-0.4321 0.3086,-0.8642 0.4321,-1.358 l -1.9753,-0.1852 c -0.2469,1.2963 -0.9877,2.1605 -2.5309,2.1605 m 6.6667,-10.4321 v 16.1111 h 1.9753 v -16.1111 h -1.9753 m 4.8765,14.2592 v 1.8519 h 1.9753 v -1.8519 z m 0,-14.2592 v 11.7284 h 1.9753 v -11.7284 h -1.9753 m 9.5679,11.9753 c 3.8889,0 5.3087,-2.5926 5.1852,-6.5432 h -8.3333 c 0,-2.4692 0.8642,-4.1358 3.2716,-4.1976 1.6049,-0.0617 2.6543,0.7408 3.0247,1.7902 l 1.7284,-0.4939 c -0.679,-1.7284 -2.284,-2.7777 -4.7531,-2.7777 -3.5803,0 -5.4321,2.2839 -5.3704,6.1728 0.0617,3.7654 1.605,6.0494 5.2469,6.0494 z m 3.2099,-5 c 0.3704,3.7037 -4.6913,4.7531 -5.9876,1.7284 -0.1852,-0.4321 -0.3704,-1.0494 -0.3704,-1.7284 h 6.358 m 10.1852,5 c 5.4938,0.2469 3.2716,-7.1605 3.7037,-11.9753 h -1.9753 v 7.4691 c 0,1.9136 -0.4938,3.0247 -2.4074,2.963 -4.4445,-0.1235 -2.7161,-6.2963 -3.0247,-10.4321 h -1.9753 l -0.0617,11.7284 h 1.8518 c 0.0617,-0.6173 -0.0617,-1.4815 0.1235,-1.9753 0.679,1.358 1.7901,2.1605 3.7654,2.2222 m 8.7654,-9.0741 c -0.1234,-1.4815 1.1111,-1.7901 2.3457,-1.358 v -1.4815 c -2.037,-0.6173 -4.321,-0.3086 -4.321,2.4074 v 7.8395 h -1.358 v 1.4198 h 1.4815 l 0.5555,2.6543 h 1.2963 v -2.6543 h 2.1605 v -1.4198 h -2.1605 v -7.4074" /></g><g
       id="g672"><g
         clip-path="url(#clipPath678)"
         id="g674"><g
           transform="matrix(1,0,0,-1,393.4839,588.9003)"
           id="g680"><text
             id="text684"
             style="font-variant:normal;font-weight:normal;font-size:22.22221947px;font-family:Helvetica;-inkscape-font-specification:Helvetica;writing-mode:lr-tb;fill:#000000;fill-opacity:0;fill-rule:nonzero;stroke:none"
             transform="translate(0,20.44488)"><tspan
               id="tspan682"
               y="0"
               x="0 7.3999991 12.337776 24.697775">(log</tspan></text>
</g></g></g><g
       id="g686"><path
         id="path688"
         style="fill:#3a414a;fill-opacity:1;fill-rule:nonzero;stroke:none"
         d="m 397.4962,568.1595 c -2.3457,2.5926 -4.0123,5.6791 -4.0123,10.4321 0,4.6914 1.7284,7.7778 4.0123,10.3087 h 1.9136 c -2.3457,-2.5309 -3.9506,-5.679 -3.9506,-10.3704 0,-4.6913 1.6049,-7.8395 3.9506,-10.3704 h -1.9136 m 3.4568,4.6297 v 16.1111 h 1.9753 v -16.1111 h -1.9753 m 9.5679,11.9753 c 3.8272,0.0617 5.2469,-2.284 5.2469,-6.1111 0.0617,-3.8889 -1.6667,-6.1111 -5.3086,-6.1111 -3.642,0 -5.1235,2.4074 -5.1852,6.1111 0,4.074 1.7284,6.1111 5.2469,6.1111 z m -0.0617,-10.7408 c 2.716,-0.0617 3.2716,1.9136 3.2716,4.6297 0,2.6543 -0.4939,4.6296 -3.1482,4.6296 -2.6543,0 -3.2716,-1.9753 -3.2716,-4.6296 0,-2.6543 0.6173,-4.5679 3.1482,-4.6297 m 17.1605,10.4939 c -0.6173,-7.7161 2.5308,-18.0864 -6.7902,-16.1111 -1.4197,0.3703 -2.3456,1.2345 -2.716,2.6543 l 1.9753,0.3086 c 0.9259,-2.9012 6.1728,-1.9753 5.4938,1.7284 v 1.8519 c -0.679,-1.2963 -1.7901,-2.2223 -3.7654,-2.2223 -3.3333,0 -4.1975,2.5309 -4.1975,5.926 0,3.4568 0.9876,5.9876 4.3827,6.0494 1.7901,0.0617 2.9629,-0.9877 3.6419,-2.1605 0.0618,0.6172 0,1.4197 0.1235,1.9753 z m -5.1235,-10.3704 c 2.2222,0 3.0864,1.9753 3.0864,4.5062 0,2.5926 -0.8642,4.6296 -3.0864,4.6296 -2.4074,0 -2.8395,-2.0988 -2.8395,-4.6296 0,-2.5309 0.3704,-4.5062 2.8395,-4.5062" /></g><g
       id="g690"><g
         clip-path="url(#clipPath696)"
         id="g692"><g
           transform="matrix(1,0,0,-1,435.5209,588.9003)"
           id="g698"><text
             id="text702"
             style="font-variant:normal;font-weight:normal;font-size:22.22221947px;font-family:Helvetica;-inkscape-font-specification:Helvetica;writing-mode:lr-tb;fill:#000000;fill-opacity:0;fill-rule:nonzero;stroke:none"
             transform="translate(0,20.44488)"><tspan
               id="tspan700"
               y="0"
               x="0 11.11111 23.471109 28.408886 33.346664 45.706661 56.817772 62.991104 75.351105 82.751106">collector)</tspan></text>
</g></g></g><g
       id="g704"><path
         id="path706"
         style="fill:#3a414a;fill-opacity:1;fill-rule:nonzero;stroke:none"
         d="m 441.1382,583.2213 c -2.4692,0 -2.963,-2.0371 -2.963,-4.5062 0,-2.4691 0.5556,-4.6296 2.963,-4.6296 1.4815,0 2.5308,0.8642 2.6543,2.3457 l 1.9753,-0.1235 c -0.3704,-2.284 -1.9136,-3.7654 -4.5679,-3.7654 -3.642,0 -4.6914,2.5308 -5.0617,6.1111 -0.6173,5.7407 6.2345,8.0864 9.0741,3.9506 0.2469,-0.4321 0.3086,-0.8642 0.432,-1.358 l -1.9753,-0.1852 c -0.2469,1.2963 -0.9876,2.1605 -2.5308,2.1605 m 11.358,1.5432 c 3.8272,0.0617 5.2469,-2.284 5.2469,-6.1111 0.0617,-3.8889 -1.6667,-6.1111 -5.3086,-6.1111 -3.642,0 -5.1235,2.4074 -5.1852,6.1111 0,4.074 1.7284,6.1111 5.2469,6.1111 z m -0.0617,-10.7408 c 2.716,-0.0617 3.2716,1.9136 3.2716,4.6297 0,2.6543 -0.4938,4.6296 -3.1482,4.6296 -2.6543,0 -3.2716,-1.9753 -3.2716,-4.6296 0,-2.6543 0.6173,-4.5679 3.1482,-4.6297 m 7.716,-1.2345 v 16.1111 h 1.9753 v -16.1111 h -1.9753 m 4.8766,0 v 16.1111 h 1.9753 v -16.1111 h -1.9753 m 9.5679,11.9753 c 3.8889,0 5.3086,-2.5926 5.1852,-6.5432 h -8.3334 c 0,-2.4692 0.8642,-4.1358 3.2716,-4.1976 1.605,-0.0617 2.6543,0.7408 3.0247,1.7902 l 1.7284,-0.4939 c -0.679,-1.7284 -2.2839,-2.7777 -4.7531,-2.7777 -3.5802,0 -5.4321,2.2839 -5.3703,6.1728 0.0617,3.7654 1.6049,6.0494 5.2469,6.0494 z m 3.2098,-5 c 0.3704,3.7037 -4.6913,4.7531 -5.9876,1.7284 -0.1852,-0.4321 -0.3704,-1.0494 -0.3704,-1.7284 h 6.358 m 8.8889,3.4568 c -2.4691,0 -2.9629,-2.0371 -2.9629,-4.5062 0,-2.4691 0.5555,-4.6296 2.9629,-4.6296 1.4815,0 2.5309,0.8642 2.6544,2.3457 l 1.9753,-0.1235 c -0.3704,-2.284 -1.9136,-3.7654 -4.5679,-3.7654 -3.642,0 -4.6914,2.5308 -5.0618,6.1111 -0.6173,5.7407 6.2346,8.0864 9.0741,3.9506 0.2469,-0.4321 0.3086,-0.8642 0.4321,-1.358 l -1.9753,-0.1852 c -0.2469,1.2963 -0.9877,2.1605 -2.5309,2.1605 m 8.8272,-7.5309 c -0.1235,-1.4815 1.1111,-1.7901 2.3457,-1.358 v -1.4815 c -2.0371,-0.6173 -4.321,-0.3086 -4.321,2.4074 v 7.8395 h -1.358 v 1.4198 h 1.4814 l 0.5556,2.6543 h 1.2963 v -2.6543 h 2.1605 v -1.4198 h -2.1605 v -7.4074 m 8.7037,9.0741 c 3.8272,0.0617 5.2469,-2.284 5.2469,-6.1111 0.0617,-3.8889 -1.6667,-6.1111 -5.3086,-6.1111 -3.642,0 -5.1235,2.4074 -5.1852,6.1111 0,4.074 1.7284,6.1111 5.2469,6.1111 z m -0.0617,-10.7408 c 2.716,-0.0617 3.2716,1.9136 3.2716,4.6297 0,2.6543 -0.4939,4.6296 -3.1482,4.6296 -2.6543,0 -3.2716,-1.9753 -3.2716,-4.6296 0,-2.6543 0.6173,-4.5679 3.1482,-4.6297 m 13.2716,8.8272 c -4.8148,0.9877 -3.2716,-5.6173 -3.5185,-10.0617 h -1.9754 l -0.0617,11.7284 h 1.8519 c 0.0617,-0.7408 -0.0618,-1.7902 0.1234,-2.4074 0.3704,1.6666 1.4198,3.0247 3.5803,2.5308 v -1.7901 m 2.3457,6.0494 c 2.3456,-2.5309 4.0123,-5.679 4.0123,-10.3704 0,-4.6913 -1.6667,-7.8395 -4.0123,-10.3704 h -1.9136 c 2.2839,2.5309 3.9506,5.6791 3.9506,10.3704 0,4.6914 -1.6667,7.8395 -3.9506,10.3704 h 1.9136" /></g><g
       id="g708"><g
         clip-path="url(#clipPath714)"
         id="g710"><g
           transform="matrix(1,0,0,-1,597.028,182.4728)"
           id="g716"><text
             id="text720"
             style="font-variant:normal;font-weight:normal;font-size:22.22221947px;font-family:Helvetica;-inkscape-font-specification:Helvetica;writing-mode:lr-tb;fill:#000000;fill-opacity:0;fill-rule:nonzero;stroke:none"
             transform="translate(0,20.44488)"><tspan
               id="tspan718"
               y="0"
               x="0 12.359999 24.719997">Log</tspan></text>
</g></g></g><g
       id="g722"><path
         id="path724"
         style="fill:#3a414a;fill-opacity:1;fill-rule:nonzero;stroke:none"
         d="m 597.028,167.1642 v 15.3086 h 2.0371 v -13.642 h 7.716 v -1.6666 h -9.7531 m 16.6667,11.9753 c 3.8271,0.0617 5.2469,-2.284 5.2469,-6.1111 0.0617,-3.8889 -1.6667,-6.1111 -5.3086,-6.1111 -3.642,0 -5.1235,2.4074 -5.1852,6.1111 0,4.074 1.7284,6.1111 5.2469,6.1111 z m -0.0617,-10.7408 c 2.716,-0.0617 3.2716,1.9136 3.2716,4.6297 0,2.6543 -0.4939,4.6296 -3.1482,4.6296 -2.6543,0 -3.2716,-1.9753 -3.2716,-4.6296 0,-2.6543 0.6173,-4.5679 3.1482,-4.6297 m 17.1604,10.4939 c -0.6172,-7.7161 2.5309,-18.0864 -6.7901,-16.1111 -1.4197,0.3703 -2.3457,1.2345 -2.716,2.6543 l 1.9753,0.3086 c 0.9259,-2.9012 6.1728,-1.9753 5.4938,1.7284 v 1.8519 c -0.679,-1.2963 -1.7901,-2.2223 -3.7654,-2.2223 -3.3334,0 -4.1976,2.5309 -4.1976,5.926 0,3.4568 0.9877,5.9876 4.3828,6.0494 1.7901,0.0617 2.9629,-0.9877 3.6419,-2.1605 0.0618,0.6172 0,1.4197 0.1235,1.9753 z M 625.67,168.5222 c 2.2222,0 3.0864,1.9753 3.0864,4.5062 0,2.5926 -0.8642,4.6296 -3.0864,4.6296 -2.4074,0 -2.8395,-2.0988 -2.8395,-4.6296 0,-2.5309 0.3704,-4.5062 2.8395,-4.5062" /></g><g
       id="g726"><g
         clip-path="url(#clipPath732)"
         id="g728"><g
           transform="matrix(1,0,0,-1,639.2502,181.5469)"
           id="g734"><text
             id="text738"
             style="font-variant:normal;font-weight:normal;font-size:22.22221947px;font-family:Helvetica;-inkscape-font-specification:Helvetica;writing-mode:lr-tb;fill:#000000;fill-opacity:0;fill-rule:nonzero;stroke:none"
             transform="translate(0,20.44488)"><tspan
               id="tspan736"
               y="0"
               x="0 12.359999 24.719997 37.079998 44.479996 56.839993 69.199989 81.55999 87.733322 100.09332">aggregator</tspan></text>
</g></g></g><g
       id="g740"><path
         id="path742"
         style="fill:#3a414a;fill-opacity:1;fill-rule:nonzero;stroke:none"
         d="m 647.0897,169.3864 c -0.9259,-1.2963 -1.9135,-2.5309 -4.1975,-2.4691 -2.2222,0.0617 -3.5802,1.2963 -3.5802,3.5185 -0.0618,3.9506 3.8889,3.8889 7.716,3.8889 0.1852,2.1605 -0.5555,3.3333 -2.5308,3.3333 -1.4815,-0.0617 -2.5309,-0.4321 -2.5926,-1.9136 l -2.0371,0.1852 c 0.3087,2.284 2.0371,3.2099 4.6914,3.2099 2.7778,0 4.4444,-1.2346 4.4444,-3.9506 v -5.0618 c -0.0617,-1.2345 0.4321,-1.9753 1.7284,-1.6666 v -1.2346 c -1.9136,-0.5555 -3.7654,0.1235 -3.642,2.1605 z m -5.7407,1.0494 c 0,-1.2346 0.7407,-2.0371 1.9753,-2.0371 2.5309,0.1852 3.8889,1.7902 3.7037,4.5679 -2.6543,-0.1234 -5.679,0.3087 -5.679,-2.5308 m 20.3086,8.4568 c -0.6172,-7.7161 2.5309,-18.0864 -6.7901,-16.1111 -1.4197,0.3703 -2.3457,1.2345 -2.716,2.6543 l 1.9753,0.3086 c 0.9259,-2.9012 6.1728,-1.9753 5.4938,1.7284 v 1.8519 c -0.679,-1.2963 -1.7901,-2.2223 -3.7654,-2.2223 -3.3334,0 -4.1976,2.5309 -4.1976,5.926 0,3.4568 0.9877,5.9876 4.3828,6.0494 1.7901,0.0617 2.9629,-0.9877 3.6419,-2.1605 0.0618,0.6172 0,1.4197 0.1235,1.9753 z m -5.1234,-10.3704 c 2.2222,0 3.0864,1.9753 3.0864,4.5062 0,2.5926 -0.8642,4.6296 -3.0864,4.6296 -2.4074,0 -2.8395,-2.0988 -2.8395,-4.6296 0,-2.5309 0.3704,-4.5062 2.8395,-4.5062 m 17.4691,10.3704 c -0.6173,-7.7161 2.5309,-18.0864 -6.7901,-16.1111 -1.4198,0.3703 -2.3457,1.2345 -2.716,2.6543 l 1.9753,0.3086 c 0.9259,-2.9012 6.1728,-1.9753 5.4938,1.7284 v 1.8519 c -0.679,-1.2963 -1.7901,-2.2223 -3.7654,-2.2223 -3.3334,0 -4.1976,2.5309 -4.1976,5.926 0,3.4568 0.9877,5.9876 4.3827,6.0494 1.7902,0.0617 2.963,-0.9877 3.642,-2.1605 0.0617,0.6172 0,1.4197 0.1235,1.9753 z m -5.1234,-10.3704 c 2.2222,0 3.0864,1.9753 3.0864,4.5062 0,2.5926 -0.8642,4.6296 -3.0864,4.6296 -2.4074,0 -2.8395,-2.0988 -2.8395,-4.6296 0,-2.5309 0.3703,-4.5062 2.8395,-4.5062 m 13.5802,8.7037 c -4.8148,0.9877 -3.2716,-5.6173 -3.5185,-10.0617 h -1.9753 l -0.0617,11.7284 h 1.8518 c 0.0617,-0.7408 -0.0617,-1.7902 0.1235,-2.4074 0.3703,1.6666 1.4197,3.0247 3.5802,2.5308 v -1.7901 m 6.4815,1.9136 c 3.8889,0 5.3086,-2.5926 5.1852,-6.5432 h -8.3334 c 0,-2.4692 0.8642,-4.1358 3.2717,-4.1976 1.6049,-0.0617 2.6543,0.7408 3.0246,1.7902 l 1.7284,-0.4939 c -0.679,-1.7284 -2.2839,-2.7777 -4.753,-2.7777 -3.5803,0 -5.4321,2.2839 -5.3704,6.1728 0.0617,3.7654 1.6049,6.0494 5.2469,6.0494 z m 3.2099,-5 c 0.3703,3.7037 -4.6914,4.7531 -5.9877,1.7284 -0.1852,-0.4321 -0.3704,-1.0494 -0.3704,-1.7284 h 6.3581 m 13.8889,4.7531 c -0.6173,-7.7161 2.5308,-18.0864 -6.7902,-16.1111 -1.4197,0.3703 -2.3456,1.2345 -2.716,2.6543 l 1.9753,0.3086 c 0.9259,-2.9012 6.1728,-1.9753 5.4938,1.7284 v 1.8519 c -0.679,-1.2963 -1.7901,-2.2223 -3.7654,-2.2223 -3.3333,0 -4.1975,2.5309 -4.1975,5.926 0,3.4568 0.9876,5.9876 4.3827,6.0494 1.7901,0.0617 2.9629,-0.9877 3.642,-2.1605 0.0617,0.6172 0,1.4197 0.1234,1.9753 z m -5.1235,-10.3704 c 2.2222,0 3.0864,1.9753 3.0864,4.5062 0,2.5926 -0.8642,4.6296 -3.0864,4.6296 -2.4074,0 -2.8395,-2.0988 -2.8395,-4.6296 0,-2.5309 0.3704,-4.5062 2.8395,-4.5062 m 15.2469,0.8642 c -0.9259,-1.2963 -1.9136,-2.5309 -4.1975,-2.4691 -2.2222,0.0617 -3.5803,1.2963 -3.5803,3.5185 -0.0617,3.9506 3.8889,3.8889 7.7161,3.8889 0.1852,2.1605 -0.5556,3.3333 -2.5309,3.3333 -1.4815,-0.0617 -2.5308,-0.4321 -2.5926,-1.9136 l -2.037,0.1852 c 0.3086,2.284 2.037,3.2099 4.6914,3.2099 2.7777,0 4.4444,-1.2346 4.4444,-3.9506 v -5.0618 c -0.0617,-1.2345 0.4321,-1.9753 1.7284,-1.6666 v -1.2346 c -1.9136,-0.5555 -3.7654,0.1235 -3.642,2.1605 z m -5.7407,1.0494 c 0,-1.2346 0.7407,-2.0371 1.9753,-2.0371 2.5308,0.1852 3.8889,1.7902 3.7037,4.5679 -2.6543,-0.1234 -5.679,0.3087 -5.679,-2.5308 m 13.0247,-0.3704 c -0.1235,-1.4815 1.1111,-1.7901 2.3456,-1.358 v -1.4815 c -2.037,-0.6173 -4.3209,-0.3086 -4.3209,2.4074 v 7.8395 h -1.3581 v 1.4198 h 1.4815 l 0.5556,2.6543 h 1.2963 v -2.6543 h 2.1605 v -1.4198 h -2.1605 v -7.4074 m 8.7037,9.0741 c 3.8271,0.0617 5.2469,-2.284 5.2469,-6.1111 0.0617,-3.8889 -1.6667,-6.1111 -5.3087,-6.1111 -3.6419,0 -5.1234,2.4074 -5.1851,6.1111 0,4.074 1.7284,6.1111 5.2469,6.1111 z m -0.0618,-10.7408 c 2.7161,-0.0617 3.2716,1.9136 3.2716,4.6297 0,2.6543 -0.4938,4.6296 -3.1481,4.6296 -2.6543,0 -3.2716,-1.9753 -3.2716,-4.6296 0,-2.6543 0.6173,-4.5679 3.1481,-4.6297 m 13.2716,8.8272 c -4.8148,0.9877 -3.2716,-5.6173 -3.5185,-10.0617 h -1.9753 l -0.0617,11.7284 h 1.8518 c 0.0618,-0.7408 -0.0617,-1.7902 0.1235,-2.4074 0.3704,1.6666 1.4198,3.0247 3.5802,2.5308 v -1.7901" /></g></g></svg>